<?xml version="1.0" standalone="no"?>
<!DOCTYPE svg PUBLIC "-//W3C//DTD SVG 1.1//EN" "http://www.w3.org/Graphics/SVG/1.1/DTD/svg11.dtd" >
<!--
2013-9-30: Created.
-->
<svg>
<metadata>
Created by iconfont
</metadata>
<defs>

<font id="iconfont" horiz-adv-x="1024" >
  <font-face
    font-family="iconfont"
    font-weight="500"
    font-stretch="normal"
    units-per-em="1024"
    ascent="896"
    descent="-128"
  />
    <missing-glyph />
    
    <glyph glyph-name="rongyu1" unicode="&#59034;" d="M330.147 168.417l-3.105 2.113c-23.995 16.366-56.736 10.206-73.12-13.753L120.381-38.43c-16.389-23.958-10.22-56.646 13.779-73.002l3.1-2.118c24-16.366 56.741-10.206 73.125 13.752l133.542 195.207c16.388 23.959 10.219 56.642-13.78 73.008zM457.934 168.417l-3.1 2.113c-23.999 16.366-56.74 10.206-73.129-13.753L248.168-38.43c-16.388-23.958-10.22-56.646 13.775-73.002l3.109-2.118c23.995-16.366 56.736-10.206 73.12 13.752l133.537 195.207c16.394 23.959 10.225 56.642-13.775 73.008zM895.09-38.213L761.813 155.993c-16.353 23.837-49.03 29.961-72.979 13.689l-3.101-2.108c-23.949-16.28-30.104-48.796-13.748-72.629L805.26-99.261c16.357-23.838 49.031-29.971 72.98-13.686l3.101 2.1c23.95 16.282 30.105 48.797 13.749 72.634zM767.555-38.213L634.279 155.993c-16.357 23.837-49.031 29.961-72.985 13.689l-3.096-2.108c-23.954-16.28-30.109-48.796-13.752-72.629l133.275-194.206c16.357-23.838 49.03-29.971 72.984-13.686l3.096 2.1c23.955 16.282 30.11 48.797 13.754 72.634zM712.252 531.312L577.453 557.22l-66.275 120.278-66.28-120.278-134.794-25.908 93.834-100.25-17.037-136.291 124.277 58.327 124.272-58.327-17.037 136.291zM803.625 461.504c-1.459-160.596-131.855-290.993-292.452-292.453-76.346-0.693-150.076 30.799-204.647 83.529-56.995 55.073-87.084 130.821-87.796 208.923-0.676 74.35-116.033 74.415-115.355 0 2.034-223.497 184.3-405.775 407.798-407.807 223.519-2.032 405.803 187.375 407.808 407.807 0.675 74.416-114.679 74.351-115.356 0.001zM218.73 480.601c1.462 160.594 131.845 290.992 292.443 292.455 76.347 0.696 150.079-30.801 204.647-83.531 56.997-55.075 87.093-130.822 87.805-208.923 0.677-74.35 116.031-74.416 115.355 0C916.948 704.095 734.669 886.376 511.173 888.411c-223.518 2.035-405.793-187.38-407.798-407.81-0.678-74.415 114.679-74.35 115.355 0z"  horiz-adv-x="1024" />

    
    <glyph glyph-name="rongyu2" unicode="&#59035;" d="M265.856 553.252864c-47.444992 0-92.034048 22.147072-120.731648 59.611136-0.395264 0.502784-0.781312 1.015808-1.171456 1.524736l-0.160768 0.21504a149.53984 149.53984 0 0 0-2.753536 3.680256v-411.224064c-0.058368-36.477952 29.421568-66.116608 65.902592-66.274304h345.234432c36.395008 0.101376 65.88928 29.592576 65.987584 65.98656V646.086656c-0.157696 36.36736-29.623296 65.788928-65.987584 65.88928h-133.50912v-5.927936c-0.002048-84.384768-68.424704-152.795136-152.810496-152.795136z m51.096576-173.971456v0.259072a109.842432 109.842432 0 0 1 62.838784-19.849216 109.836288 109.836288 0 0 1 62.83776 19.849216v-0.259072c0.128 0.088064 0.259072 0.167936 0.387072 0.259072l-0.28672-51.854336a15.772672 15.772672 0 0 0-9.723904-14.618624c-5.910528-2.44736-12.71296-1.088512-17.20832 3.434496l-36.107264 36.11136-36.194304-36.009984a15.808512 15.808512 0 0 0-4.967424-3.337216 15.499264 15.499264 0 0 0-6.115328-1.245184 15.758336 15.758336 0 0 0-10.882048 4.5824 16.069632 16.069632 0 0 0-2.701312 3.647488 16.31232 16.31232 0 0 0-0.933888 1.809408 15.613952 15.613952 0 0 0-1.231872 6.095872V379.47392c-0.033792 0.021504-0.067584 0.041984-0.101376 0.06656h0.101376v-0.06656c0.09728-0.06656 0.196608-0.128 0.288768-0.192512z m62.74048 185.240576c52.215808 0 94.552064-42.32192 94.552064-94.537728 0-0.07168-0.004096-0.144384-0.004096-0.218112 0-0.058368 0.004096-0.111616 0.004096-0.167936 0-0.4608-0.027648-0.915456-0.033792-1.374208-0.01536-1.10592-0.03072-2.212864-0.084992-3.315712-0.021504-0.45568-0.065536-0.90624-0.093184-1.358848a92.900352 92.900352 0 0 0-0.259072-3.38944c-0.050176-0.512-0.123904-1.015808-0.181248-1.52576-0.121856-1.048576-0.243712-2.098176-0.39936-3.141632-0.084992-0.57344-0.193536-1.138688-0.289792-1.708032-0.164864-0.971776-0.324608-1.942528-0.520192-2.907136-0.118784-0.5888-0.259072-1.171456-0.38912-1.757184-0.208896-0.940032-0.41472-1.87904-0.649216-2.809856-0.139264-0.553984-0.300032-1.096704-0.449536-1.64352a90.17856 90.17856 0 0 0-0.820224-2.888704c-0.137216-0.448512-0.29184-0.887808-0.436224-1.333248a92.91776 92.91776 0 0 0-1.067008-3.156992c-0.105472-0.285696-0.218112-0.564224-0.324608-0.84992a95.397888 95.397888 0 0 0-1.417216-3.592192c-0.027648-0.065536-0.058368-0.129024-0.084992-0.19456a94.509056 94.509056 0 0 0-20.033536-29.841408 94.582784 94.582784 0 0 0-67.019776-27.860992v0.116736c-52.215808 0-94.536704 42.319872-94.536704 94.536704 0 0.065536 0.004096 0.128 0.004096 0.193536s-0.004096 0.128-0.004096 0.193536c0.001024 52.210688 42.323968 94.532608 94.537728 94.532608zM168.726528 721.526784c-36.395008-0.100352-65.872896-29.594624-65.988608-65.988608v-2.94912c0.115712 38.112256 31.040512 68.95104 69.152768 68.937728h-3.16416zM641.654784 635.778048v-466.629632h0.862208c2.863104 0.774144 7.645184 3.350528 14.517248 20.445184 1.332224 3.335168 2.962432 7.81824 4.581376 13.171712l82.896896 352.3072c8.219648 36.954112-14.816256 73.663488-51.668992 82.310144l-37.055488 9.56416a11.488256 11.488256 0 0 1-9.780224-2.147328 11.467776 11.467776 0 0 1-4.353024-9.02144zM805.919744 515.915776l-22.73792 11.74016a11.461632 11.461632 0 0 1-10.021888 0.28672 11.475968 11.475968 0 0 1-6.398976-7.7312l-84.616192-339.22048h1.04448a29.77792 29.77792 0 0 1 13.94688 11.938816 77.364224 77.364224 0 0 1 5.82656 8.978432l125.390848 243.710976c13.131776 25.6256 3.095552 57.023488-22.433792 70.296576zM379.693056 564.13696c-52.150272 0-94.42816-42.218496-94.532608-94.344192 0-0.065536-0.004096-0.128-0.004096-0.193536 0-52.216832 42.322944-94.536704 94.536704-94.536704 39.103488 0 72.66304 23.73632 87.052288 57.585664 0.027648 0.065536 0.058368 0.129024 0.084992 0.19456 0.500736 1.183744 0.963584 2.38592 1.417216 3.592192 0.106496 0.285696 0.219136 0.564224 0.324608 0.84992a89.275392 89.275392 0 0 1 1.067008 3.156992c0.145408 0.44544 0.297984 0.884736 0.436224 1.333248 0.293888 0.955392 0.556032 1.922048 0.820224 2.888704 0.149504 0.54784 0.308224 1.09056 0.449536 1.64352 0.234496 0.928768 0.44032 1.869824 0.649216 2.809856 0.130048 0.585728 0.270336 1.168384 0.38912 1.757184 0.192512 0.961536 0.355328 1.93536 0.520192 2.907136 0.096256 0.569344 0.2048 1.134592 0.289792 1.708032 0.155648 1.040384 0.277504 2.091008 0.39936 3.141632 0.059392 0.509952 0.131072 1.012736 0.181248 1.52576a94.5152 94.5152 0 0 1 0.259072 3.38944c0.027648 0.454656 0.07168 0.904192 0.093184 1.358848 0.055296 1.099776 0.068608 2.208768 0.084992 3.315712 0.006144 0.458752 0.033792 0.913408 0.033792 1.374208 0 0.05632-0.004096 0.110592-0.004096 0.167936-0.09216 52.140032-42.389504 94.373888-94.547968 94.373888zM316.566528 379.54048c0.033792-0.023552 0.067584-0.044032 0.101376-0.06656v0.06656h-0.101376zM317.898752 322.05824c0.270336-0.626688 0.590848-1.224704 0.933888-1.809408a16.136192 16.136192 0 0 1 2.415616-3.1744 15.776768 15.776768 0 0 1 11.167744-4.5824c2.103296 0 4.180992 0.429056 6.115328 1.246208a16.039936 16.039936 0 0 1 4.967424 3.336192l36.109312 36.109312 36.093952-36.109312a15.768576 15.768576 0 0 1 17.209344-3.43552 15.73376 15.73376 0 0 1 9.720832 14.6176v51.282944a109.836288 109.836288 0 0 0-62.83776-19.849216 109.855744 109.855744 0 0 0-62.838784 19.590144c-0.094208 0.064512-0.192512 0.125952-0.28672 0.192512v-51.316736a15.60064 15.60064 0 0 1 1.229824-6.09792zM210.08896 712.363008c-38.040576-0.100352-68.851712-30.912512-68.952064-68.95104v-25.126912a156.961792 156.961792 0 0 1 2.653184-3.680256c0.053248-0.07168 0.106496-0.144384 0.160768-0.21504 0.384-0.515072 0.781312-1.014784 1.171456-1.524736 28.698624-37.464064 73.286656-59.611136 120.731648-59.611136 84.385792 0 152.809472 68.40832 152.809472 152.795136v6.315008H210.08896zM190.702592 585.105408v-2.948096c0.115712 38.112256 31.040512 68.95104 69.151744 68.936704h-3.163136c-36.393984-0.100352-65.871872-29.5936-65.988608-65.988608zM229.004288 136.628224c-0.058368-36.477952 29.420544-66.115584 65.901568-66.274304h345.235456c36.393984 0.098304 65.887232 29.592576 65.98656 65.988608V575.65696c-0.156672 36.366336-29.622272 65.788928-65.98656 65.888256h-134.18496v-6.300672c-0.729088-66.060288-43.825152-124.16-106.819584-144.031744-62.99648-19.887104-131.634176 2.978816-170.133504 56.639488v-411.224064z m301.691904 120.623104a15.771648 15.771648 0 0 0-9.719808-14.615552c-5.914624-2.44736-12.715008-1.088512-17.211392 3.43552l-36.108288 36.10624-36.19328-36.007936a15.8464 15.8464 0 0 0-4.969472-3.337216 15.45216 15.45216 0 0 0-6.11328-1.24416 15.747072 15.747072 0 0 0-10.881024 4.581376 16.25088 16.25088 0 0 0-3.349504 4.970496 15.68768 15.68768 0 0 0-1.230848 6.111232v51.859456c37.855232-26.472448 88.208384-26.472448 126.061568 0l-0.284672-51.859456z m-63.03744 236.838912c52.214784 0 94.552064-42.32192 94.552064-94.538752a94.511104 94.511104 0 0 0-27.533312-67.175424 94.570496 94.570496 0 0 0-67.018752-27.86304v0.488448c-52.215808 0-94.536704 42.323968-94.536704 94.550016-0.002048 52.216832 42.32192 94.538752 94.536704 94.538752zM780.809216 566.950912l-37.055488 9.563136a11.480064 11.480064 0 0 1-9.780224-2.148352 11.444224 11.444224 0 0 1-4.353024-9.018368v-466.629632h0.86016c2.865152 0.772096 7.647232 3.350528 14.518272 20.446208 1.333248 3.336192 2.963456 7.816192 4.5824 13.170688l82.898944 352.3072c8.2176 36.95104-14.820352 73.66144-51.67104 82.30912zM771.158016 110.557184a29.775872 29.775872 0 0 1 13.943808 11.940864 76.63616 76.63616 0 0 1 5.82656 8.976384l125.390848 243.709952c13.128704 25.627648 3.09248 57.025536-22.433792 70.2976l-22.73792 11.741184a11.45856 11.45856 0 0 1-10.021888 0.284672 11.4688 11.4688 0 0 1-6.398976-7.7312l-84.616192-339.219456h1.047552zM506.630144 635.616256v6.31296H298.054656c-38.040576-0.100352-68.851712-30.910464-68.952064-68.952064v-25.126912c28.447744-40.745984 75.022336-65.02912 124.71808-65.02912 84.386816 0.002048 152.809472 68.409344 152.809472 152.795136zM506.630144 635.616256v6.31296H298.054656c-38.040576-0.100352-68.851712-30.910464-68.952064-68.952064v-25.126912c28.447744-40.745984 75.022336-65.02912 124.71808-65.02912 84.386816 0.002048 152.809472 68.409344 152.809472 152.795136z"  horiz-adv-x="1024" />

    
    <glyph glyph-name="yunicon-15" unicode="&#59072;" d="M846.336 205.653333c-4.608 4.778667-10.922667 7.594667-17.664 7.68h-94.72V308.138667c0 13.568-11.52 24.661333-25.6 24.661333s-25.6-11.093333-25.6-24.661333V213.333333H587.946667c-13.568 0-24.661333-11.52-24.661334-25.6s11.093333-25.6 24.661334-25.6h94.805333v-94.890666c0.341333-13.824 11.776-24.746667 25.6-24.490667h0.085333c6.656-0.085333 13.141333 2.389333 17.92 6.997333 4.778667 4.608 7.594667 10.922667 7.68 17.664V162.133333h94.890667c13.824 0.341333 24.746667 11.776 24.490667 25.6 0 6.656-2.474667 13.141333-7.082667 17.92zM512 93.952H247.466667c-14.08 0-25.6 11.52-25.6 25.6v529.066667c0 14.08 11.52 25.6 25.6 25.6h529.066666c14.08 0 25.6-11.52 25.6-25.6v-264.533334h51.2V682.410667c0 23.637333-19.370667 43.008-43.008 43.008H213.674667c-23.637333 0-43.008-19.370667-43.008-43.008v-596.736c0-23.637333 19.370667-43.008 43.008-43.008H512v51.285333zM512 68.352m-25.6 0a25.6 25.6 0 1 1 51.2 0 25.6 25.6 0 1 1-51.2 0ZM827.733333 384m-25.6 0a25.6 25.6 0 1 1 51.2 0 25.6 25.6 0 1 1-51.2 0Z"  horiz-adv-x="1024" />

    
    <glyph glyph-name="xinzengquyu" unicode="&#59033;" d="M109.792507 193.779542h481.19036c39.514013 79.389297 121.228992 134.076691 215.927146 134.07669V622.788825a107.252321 107.252321 0 0 1-107.252321 107.252321H109.792507a107.252321 107.252321 0 0 1-107.25232-107.252321v-321.756962a107.252321 107.252321 0 0 1 107.25232-107.252321z m0-26.801791a106.258826 106.258826 0 0 0-35.585191 6.502878l8.783401-46.716853a53.62616 53.62616 0 0 1 53.62616-53.626161h429.664087c-0.270953 4.493308-0.677383 8.896298-0.677383 13.412185 0 28.269454 5.125532 55.2293 14.044409 80.450531H109.792507z m801.953827-51.119843h-75.505634v75.505634c0 16.144297-13.096073 29.24037-29.21779 29.24037h-0.180635c-16.166876 0-29.24037-13.096073-29.24037-29.24037v-75.505634h-75.505634c-16.144297 0-29.24037-13.073493-29.240369-29.240369v-0.180636c0-16.144297 13.096073-29.24037 29.240369-29.240369h75.505634v-75.483055c0-16.166876 13.073493-29.262949 29.24037-29.262949h0.180635c16.121717 0 29.21779 13.096073 29.21779 29.262949v75.483055h75.505634c16.166876 0 29.262949 13.096073 29.262949 29.240369v0.180636c0 16.166876-13.096073 29.24037-29.262949 29.240369zM82.990717 32.901061A53.62616 53.62616 0 0 0 29.364556 86.527221l-7.947961 127.054486a106.800732 106.800732 0 0 0-18.876408 60.648365v-241.329011a107.252321 107.252321 0 0 1 107.25232-107.252321h517.61099a240.967741 240.967741 0 0 0-55.63573 107.252321H82.990717zM806.910013 301.031863c-118.451721 0-214.482062-96.052921-214.482062-214.504642 0-118.4743 96.030341-214.504642 214.482062-214.504642 118.4743 0 214.527221 96.030341 214.527221 214.504642 0 118.451721-96.052921 214.504642-214.527221 214.504642z m0-402.184914a187.702851 187.702851 0 1 0 0 375.405703 187.702851 187.702851 0 0 0 0-375.405703z"  horiz-adv-x="1024" />

    
    <glyph glyph-name="ai207" unicode="&#59077;" d="M425.640718 532.754292l0 170.978945-299.323927-299.251272 299.323927-299.378162 0 175.361761c213.758218 0 363.447299-68.396695 470.302872-218.076566C853.226739 276.200428 724.955435 489.912597 425.640718 532.754292"  horiz-adv-x="1024" />

    
    <glyph glyph-name="xiangyou2" unicode="&#59176;" d="M249.311159 14.024667 619.286492 384 249.311159 753.975333 327.012845 831.677019 774.688841 384 327.012845-63.677019Z"  horiz-adv-x="1024" />

    
    <glyph glyph-name="baocun1" unicode="&#59031;" d="M920.200533 569.582933L702.890667 805.751467A67.652267 67.652267 0 0 1 653.090133 827.733333H153.6C115.899733 827.733333 85.333333 796.586667 85.333333 758.186667v-748.356267C85.333333-28.586667 115.899733-59.733333 153.6-59.733333h716.8c37.700267 0 68.266667 31.146667 68.266667 69.563733v512.170667a70.280533 70.280533 0 0 1-18.466134 47.581866zM238.933333 640a34.133333 34.133333 0 0 0 34.133334 34.133333h328.2432c8.430933 0 16.571733-3.1232 22.8352-8.7552l94.8224-85.333333C742.1952 559.104 727.3984 520.533333 696.1152 520.533333H273.066667a34.133333 34.133333 0 0 0-34.133334 34.133334v85.333333z m546.133334-512a34.133333 34.133333 0 0 0-34.133334-34.133333H273.066667a34.133333 34.133333 0 0 0-34.133334 34.133333V349.866667a34.133333 34.133333 0 0 0 34.133334 34.133333h477.866666a34.133333 34.133333 0 0 0 34.133334-34.133333v-221.866667zM682.666667 315.733333h-34.133334a34.133333 34.133333 0 0 1-34.133333-34.133333v-34.133333a34.133333 34.133333 0 0 1 34.133333-34.133334h34.133334a34.133333 34.133333 0 0 1 34.133333 34.133334v34.133333a34.133333 34.133333 0 0 1-34.133333 34.133333z"  horiz-adv-x="1024" />

    
    <glyph glyph-name="xuanzhong1" unicode="&#59039;" d="M0 255.1C94.2 311.3 188.4 367.5 282.6 423.8c45.5-87.1 91.2-174.4 136.7-261.5 0.1-0.1 118.7 250.8 222.1 389.5C751.3 699.3 842.9 809.6 993.7 869c-16.3-46.4-20.8-89.6-20.8-162 2.6-57.5 13.3-112.7 50.7-199.5-72.7-33.5-140.7-76.2-175.6-106.3-48.3-41.7-92.5-89.6-136.8-136C611.3 151 559.6 86 437-100.5c-90.9 109.9-115.3 132.2-186.3 194.1C164.8 168.4 116.6 198.4 0 255.1z m0 0"  horiz-adv-x="1024" />

    
    <glyph glyph-name="rili2" unicode="&#59030;" d="M209 644.764V63h641V644.764H209z m-18 36h677c9.941 0 18-8.06 18-18V45c0-9.941-8.059-18-18-18H191c-9.941 0-18 8.059-18 18V662.764c0 9.94 8.059 18 18 18zM198 404.5c-9.941 0-18 8.059-18 18s8.059 18 18 18h666.44c9.942 0 18-8.059 18-18s-8.058-18-18-18H198zM306.5 731c0 9.941 8.059 18 18 18s18-8.059 18-18v-147.981c0-9.941-8.059-18-18-18s-18 8.059-18 18V731zM721.5 731c0 9.941 8.059 18 18 18s18-8.059 18-18v-147.981c0-9.941-8.059-18-18-18s-18 8.059-18 18V731zM510.5 301.007c0 9.941 8.059 18 18 18s18-8.059 18-18v-150.285c0-9.94-8.059-18-18-18s-18 8.06-18 18V301.007z"  horiz-adv-x="1024" />

    
    <glyph glyph-name="cancel" unicode="&#59026;" d="M482.7 646.1v143.8c0 37.4-45.3 56.2-71.7 29.7l-270.7-270.6c-16.4-16.4-16.4-43 0-59.4l270.6-270.6c26.5-26.5 71.7-7.7 71.7 29.7v155c96.1 0.3 271.5 10.7 271.5-227.7 0-118.1-92.8-216.8-216-239.6 198.1 24.4 326 236 326 361.9 0.1 292.6-309.4 346.3-381.4 347.8z"  horiz-adv-x="1024" />

    
    <glyph glyph-name="qiyong" unicode="&#59027;" d="M696.6 638.8H326.1c-145.1 0-262.8-114.7-262.8-256s117.7-256 262.8-256h370.5c145.1 0 262.8 114.7 262.8 256-0.1 141.4-117.7 256-262.8 256z m6.7-448c-106 0-192 86-192 192s86 192 192 192 192-86 192-192-85.9-192-192-192z"  horiz-adv-x="1024" />

    
    <glyph glyph-name="quxiao" unicode="&#59028;" d="M97.1 804.8c11.3 11.3 29.8 11.3 41.1 0l782.2-782.2c11.3-11.3 11.3-29.8 0-41.1s-29.8-11.3-41.1 0L97.1 763.8c-11.3 11.3-11.3 29.7 0 41zM920.4 804.9c11.3-11.3 11.3-29.8 0-41.1L138.2-18.5c-11.3-11.3-29.8-11.3-41.1 0s-11.3 29.8 0 41.1L879.3 804.9c11.4 11.3 29.8 11.3 41.1 0z"  horiz-adv-x="1024" />

    
    <glyph glyph-name="nvjiaoshi" unicode="&#59017;" d="M510.374603 858.074074c-53.457496-2.528395-130.031746-53.096296-102.941799-115.583774 0.722399-1.444797 2.889594-0.722399 2.889595 0.722398v0.3612c0.361199-1.083598 0.722399-2.167196 1.444797-3.250794 10.11358-18.782363 33.230335-24.200353 52.373897-27.089947 29.979541-4.695591 60.681481-4.695591 91.022223 0 19.865961 3.250794 48.761905 5.05679 56.708289 27.451146v0.3612c0.722399 0.722399 1.083598 1.444797 1.444797 2.167195 16.253968 65.377072-39.731922 117.75097-102.941799 114.861376z m-87.04903-115.944973c0 0.361199 0 0.361199 0 0 8.307584-5.417989 16.615168-10.47478 25.283951-14.447972-9.029982 3.611993-18.782363 8.307584-25.283951 14.447972zM614.4 232.11569699999995c-22.394356 32.507937-35.397531 63.932275-34.675132 104.025396 0.361199 8.668783-7.223986 12.280776-13.725573 11.197179-0.722399 1.083598-1.805996 1.805996-2.889595 2.528395-33.591534 21.310758-77.296649 15.892769-113.055379 3.250793-2.889594-1.083598-4.695591-3.611993-5.779189-6.140388-4.334392-0.722399-7.946384-4.334392-6.501587-10.11358 10.835979-46.955908-5.779189-78.380247-27.451146-117.75097-11.558377-21.310758-15.53157-44.066314-8.668783-67.544268 15.892769-53.818695 71.51746-78.741446 124.613756-75.851852 51.2903 2.889594 102.2194 28.534744 109.804586 83.798236 3.250794 27.451146-6.501587 50.206702-21.671958 72.601059zM709.034215 557.195062c2.889594 25.283951 3.611993 50.206702 0.722399 73.323457-15.53157 121.001764-176.987654 107.998589-265.481482 107.27619-53.096296-0.361199-85.243034-26.367549-99.329806-77.296649-9.752381-34.675132-13.725573-71.51746-13.364374-107.998589-8.307584 1.444797-17.337566-1.444797-23.477954-7.946385-9.391182-10.11358-9.752381-25.64515-8.307584-38.287125 1.444797-13.003175 6.501587-26.367549 18.059965-33.591534 6.501587-3.611993 13.725573-5.05679 20.58836-3.250794 0.361199-1.805996 0.722399-3.973192 1.083598-5.779189 0.361199-1.083598 0.722399-2.167196 1.444797-2.889594 6.501587-34.313933 19.504762-67.183069 40.81552-96.079012 55.624691-75.851852 158.56649-96.801411 232.251147-34.675133 39.009524 33.230335 62.126279 80.186243 75.490652 128.948149 1.083598 3.973192 2.167196 7.946384 3.250794 12.280776 1.083598-0.361199 2.528395-0.722399 3.973192-0.722399 37.925926 1.805996 44.788713 77.296649 12.280776 86.687831zM759.963316 536.967901c-41.537919 0-41.17672 49.484303-44.066314 89.577425 0.361199 7.946384 0 15.892769-2.528395 23.477954-0.722399 4.695591-1.805996 9.029982-3.250794 12.641976-1.805996 5.05679-4.334392 10.11358-6.862787 14.809171-20.22716 59.597884-81.99224 84.159436-139.422927 97.16261-57.069489 13.003175-133.28254 23.116755-173.736861-30.340741v-0.361199c-33.952734 3.611993-53.457496-25.283951-65.738272-53.818695-18.421164-43.343915-27.089947-95.717813-15.531569-141.951323v-0.361199c0-0.361199 0.361199-0.722399 0.722398-1.083598 1.083598-0.722399 3.250794-0.361199 3.611993 1.083598 7.585185 2.889594 15.53157 2.889594 20.227161-5.417989 3.973192-7.223986 1.083598-15.53157 3.973192-23.116755 0.361199-0.722399 1.083598-0.722399 1.444797-0.722399 0.361199-0.361199 1.083598-0.361199 1.805997 0 46.23351 23.839153 78.380247 70.072663 91.383421 119.918166 0.361199 1.083598 1.083598 1.805996 1.444797 2.889594 0.722399 1.444797 0.722399 2.528395 0.3612 3.973193 0.361199 2.167196 1.083598 4.334392 1.444797 6.862786 8.668783-13.725573 20.22716-26.006349 30.340741-37.564726 22.033157-24.922751 47.678307-46.955908 75.851852-64.654674 56.708289-35.036332 122.80776-48.039506 187.823633-32.507937 12.641975 0.361199 23.116755 6.140388 33.230335 14.086773 1.805996 1.805996 0 5.417989-2.528395 5.417989zM490.508642 196.718166c-2.528395 3.611993-5.779189 3.973192-9.752381 5.05679-4.334392 1.083598-9.029982 2.528395-13.725573 3.250794-5.417989 0.722399-7.223986-5.779189-2.167196-7.946385 3.973192-1.805996 8.307584-2.889594 12.280776-3.973192 3.611993-1.083598 7.585185-2.889594 11.197178-1.444797 1.805996 0.722399 3.611993 3.250794 2.167196 5.05679zM623.068783 213.69453299999998c-0.361199 0.722399-1.083598 1.083598-1.444797 1.444797v0.361199c1.083598 8.307584-9.752381 11.558377-12.641975 3.611993-0.361199-0.361199-0.722399-1.083598-1.083598-1.444797-11.558377-2.528395-22.394356-5.417989-33.230335-8.307584-10.11358-1.083598-19.143563-1.444797-21.671958-1.805996-15.53157-1.444797-31.424339-1.805996-47.317108-1.083598-29.618342 1.444797-58.514286 11.558377-87.771428 13.364374-1.805996 2.889594-6.501587 4.334392-8.307584 0.361199-37.203527-74.045855-47.317108-200.826808-0.361199-276.31746 0.361199 0 0.361199 0 0.722398-0.3612 0.722399 0 1.444797-0.361199 2.167196-0.722398 1.805996-0.361199 3.250794-0.722399 4.695591-1.083598 1.083598 0 1.805996-0.361199 2.528395-0.722399 2.889594-0.361199 5.417989-1.083598 7.946384-1.805996 2.528395-0.361199 4.695591-0.722399 6.862787-1.444797 2.167196 0 3.973192-0.361199 6.140388-0.722399 2.167196-0.361199 3.973192-0.722399 5.779189-1.083598 1.083598 0 2.528395-0.361199 3.611993-0.722398 1.444797 0 2.889594-0.361199 4.334391-0.722399 1.083598 0 1.805996-0.361199 2.528395-0.361199 2.167196 0 3.973192-0.361199 6.140388-0.722399h0.722399c1.805996 0 3.611993-0.361199 5.417989-0.722399 1.444797 0 3.250794-0.361199 4.695591-0.722398h0.361199c2.167196-0.361199 4.334392-0.361199 6.140388-0.722399h1.444798c2.167196 0 4.695591-0.361199 6.862786-0.722398 0.722399 0 1.083598 0 1.805997-0.3612H491.231041c0.722399 0 1.805996 0 2.528395-0.361199h2.889594l2.167196-0.361199c1.083598 0 1.805996 0 2.528395-0.361199 1.805996 0 3.250794-0.361199 4.695591-0.3612 0.722399 0 1.083598 0.361199 1.805996 0.3612h1.805997c1.083598 0 1.805996 0 2.528395-0.3612 2.167196 0.361199 4.334392 0 6.501587 0 2.528395 0.361199 4.695591 0.361199 7.223986 0.3612h1.444797c1.444797 0 2.889594 0.361199 4.334392 0.361199h6.140388c2.167196 0.361199 3.973192 0.722399 6.501587 0.722398 1.444797 0 2.528395 0 3.973192-0.361199 1.083598 0 2.528395 0.361199 3.973192 0.361199 1.444797 0.361199 3.250794 0.361199 5.05679 0.3612h1.805997c1.083598 0.361199 2.528395 0.361199 3.611993 0.722398 2.167196 0.361199 4.334392 0.722399 6.862786 0.722399h0.722399c2.167196 0.722399 4.695591 1.083598 6.862787 1.083598 1.083598 0.361199 2.528395 0.361199 3.973192 0.361199 1.083598 0.361199 1.805996 0.361199 2.889594 0.722399 1.805996 0.361199 3.611993 0.722399 5.779189 1.083598h0.722399c1.805996 0.722399 3.973192 0.722399 6.140388 1.083597 1.444797 0.361199 2.889594 0.722399 4.334391 0.722399 1.805996 0.361199 3.250794 0.722399 5.05679 0.722399 2.167196 0.361199 4.334392 0.722399 6.862787 0.722398 1.805996 0.722399 3.611993 1.444797 5.417989 1.805997 0.722399 0 1.444797 0.361199 1.805997 0.361199 2.167196 0.722399 3.973192 1.083598 6.501587 1.444797 2.528395 0.722399 5.05679 1.083598 7.946384 1.083598h0.3612c2.528395 0.722399 5.417989 1.444797 7.946384 2.528395 0.361199 0 0.722399 0.361199 1.083598 0.361199 1.444797 0.361199 2.889594 0.722399 4.695591 1.083598 46.23351 74.045855 29.257143 196.131217-25.64515 266.56508z m-202.271605-179.51605c-0.361199 0.722399-0.722399 1.444797-1.444797 2.167196 0.722399 6.501587 1.444797 13.003175 2.528395 19.504762l-1.083598-21.671958z m241.281129 37.203528c0.361199-2.889594 0.361199-5.779189 0.361199-8.668783-0.722399 3.250794-3.250794 5.05679-5.779189 5.417989 2.167196 0.361199 3.973192 1.444797 5.41799 3.250794z m-1.083598-48.039507c-1.444797-12.280776-4.334392-23.839153-8.668783-35.036331-0.722399 0.722399-1.805996 1.083598-2.528395 1.444797 7.223986 16.253968 11.558377 33.591534 12.641975 51.651499-0.361199-5.779189-0.722399-11.919577-1.444797-18.059965zM619.817989 237.533686c-4.334392 10.11358-7.946384 20.58836-12.280776 30.70194 0 0 0 0.361199-0.361199 0.361199 2.528395 4.695591-4.695591 8.668783-8.307584 3.973193-18.421164-24.561552-45.511111-38.287125-71.51746-53.096297l-1.083598-1.083598c-0.361199 1.444797-1.444797 2.528395-3.250794 2.889595-2.889594 0.722399-5.779189 1.805996-8.668783 2.889594-0.361199 0.722399-1.444797 1.444797-2.528395 1.805997-1.805996 0.361199-3.250794 0.722399-5.05679 1.083598-26.728748 10.835979-49.123104 26.728748-72.962257 44.788712-1.083598 0.722399-2.167196 0.361199-2.889595-0.722399h-0.361199c-0.722399 0.361199-1.805996-0.361199-1.805996-1.083597-2.889594 2.167196-7.223986 2.167196-8.307584-2.528395-1.805996-11.197178-11.197178-28.534744-10.11358-39.731923 0.722399-9.029982 9.391182-18.782363 14.086772-25.64515 13.725573-20.22716 30.70194-40.093122 52.012698-52.735097 0.361199-3.973192 6.501587-5.779189 7.585186-1.083598 0 0.361199 0.361199 1.083598 0.361199 1.444797 1.805996 0.361199 2.528395 2.889594 1.083598 4.334392l2.167196 9.752381c3.973192 7.946384 10.835979 18.059965 11.919576 19.504762 6.862787 9.029982 14.809171 16.615168 24.200353 22.755555 0.722399 0.361199 1.083598 1.083598 1.444797 1.444798 16.976367-16.615168 26.006349-35.036332 31.06314-58.153087 0.722399-2.528395 3.250794-3.611993 5.417989-2.889594 0.722399-0.361199 1.444797 0 2.167196 0.361199 31.424339 17.337566 49.845503 50.929101 54.541093 85.965432 1.805996 1.444797 2.528395 2.889594 1.444797 4.695591zM799.334039 172.156614c-1.083598 1.805996-3.250794 2.167196-5.05679 1.083598-0.361199 0.722399-1.083598 1.083598-1.805997 1.444797-53.096296 21.671958-109.804586 45.149912-166.151675 57.069488-1.083598 0.361199-2.167196-0.361199-2.889595-1.083598-1.805996 0.361199-3.250794-0.361199-3.973192-2.528395-19.143563-78.380247-50.929101-148.814109-84.520635-221.053968-48.761905 70.433862-96.440212 136.533333-124.974956 217.803175-0.361199 1.444797-1.805996 1.805996-2.889594 1.444797-0.361199 1.444797-1.444797 2.167196-3.250794 1.805996-53.818695-20.949559-109.804586-44.066314-160.733686-70.795061-1.083598-0.361199-1.444797-1.083598-1.444797-2.167196-0.722399 0-1.083598-0.361199-1.083598-1.083598-16.976367-39.731922-24.200353-84.520635-30.340741-127.86455 43.705115-35.75873 144.479718-66.821869 190.352029-79.825044 14.086772-3.973192 28.173545-7.223986 42.260317-9.752381 0.361199 0 1.083598-0.361199 1.444797-0.3612 45.149912-8.307584 90.299824-9.752381 137.255732-2.889594 65.377072 9.752381 124.613757 25.283951 177.710053 59.959083 22.394356 14.809171 59.236684 41.899118 81.99224 63.571076-9.391182 40.81552-22.755556 79.463845-41.899118 115.222575zM450.054321-64.790123c1.444797 0 2.889594-0.361199 4.334392-0.722399 1.083598 0 1.805996-0.361199 2.889594-0.361199 1.083598 0 2.167196 0 3.250794-0.3612-13.003175 23.477954-26.367549 46.594709-42.260318 67.905468 0 0.361199 0.361199 0.361199 0.361199 0.722398 8.307584 23.116755 15.53157 47.678307 20.58836 71.87866 0.361199 1.083598 0 1.805996-0.361199 2.167196-0.361199 1.444797-1.083598 2.528395-2.528395 2.889594-23.477954 6.501587-46.23351 12.641975-68.989065 22.394356 7.946384 20.22716 14.809171 41.17672 22.033157 62.126279 6.501587 18.421164 16.253968 37.925926 16.615167 57.791887 0 0.361199-0.361199 0.361199-0.722399 0-11.919577-15.892769-16.253968-37.203527-23.116754-55.985891-7.585185-21.671958-15.892769-43.343915-22.755556-65.738271-0.722399-2.889594 2.167196-4.695591 4.334392-3.611993 21.310758-11.197178 44.427513-20.58836 68.266666-24.200353-7.946384-22.394356-14.447972-45.87231-19.504762-68.989065-0.361199-1.444797 0.361199-2.167196 1.083598-2.889594 0-0.361199 0-0.722399 0.3612-0.722399 10.47478-22.033157 22.394356-43.343915 34.675132-64.654674 0.722399 0.361199 1.083598 0.361199 1.444797 0.3612zM531.324162-70.93051100000002h6.140388c0.361199 0 1.083598 0 1.444797 0.361199-1.083598 26.006349-2.889594 52.012698-5.417989 77.657848-0.361199 2.889594-4.695591 2.889594-4.695591 0 0-26.006349 0.722399-52.012698 1.083598-77.657848 1.083598-0.361199 1.444797-0.361199 1.444797-0.361199zM670.385891 146.872663c-11.919577 27.451146-25.64515 53.818695-40.454321 79.825044-2.167196 3.973192-8.307584 0.361199-6.140388-3.611993 11.197178-19.865961 22.033157-40.093122 31.785538-60.681481 2.889594-6.501587 30.340741-78.019048 28.173545-77.657849-0.722399 0-1.083598 0-1.083598-0.361199-9.029982 0-18.782363-2.528395-27.451147-4.334391-6.862787-1.083598-14.447972-1.805996-21.310758-3.973193-1.805996 0-3.611993-0.361199-5.41799-0.722398-2.889594-0.722399-4.695591-1.083598-5.779188-3.973192-0.361199-0.722399 0-1.083598 0-1.805997-1.444797-0.722399-2.889594-2.167196-2.167196-4.334391 9.752381-24.200353 16.615168-48.400705 23.477954-73.323457-10.11358-17.337566-19.865961-35.036332-29.618342-52.735097 1.444797 0.361199 2.528395 0.722399 3.973192 0.722398 0.361199 0 1.083598 0 1.805997 0.3612 1.444797 0.361199 3.250794 0.722399 5.05679 1.083598h0.361199c7.946384 15.892769 16.253968 31.424339 24.200353 47.317107 0.722399 1.444797 0.361199 2.889594-0.361199 3.611993-2.889594 26.367549-11.558377 52.012698-22.033157 75.851852l-0.3612 0.361199 0.3612 0.3612s0.361199 0.361199 0.722398 0.361199c9.029982-1.805996 18.421164 1.444797 27.089947 2.889594 10.47478 1.805996 21.671958 2.889594 31.06314 7.223986 0.722399-0.361199 1.444797-0.361199 2.167195 0 1.083598 0.722399 2.167196 1.083598 3.250794 1.805997 1.083598 0.361199 1.805996 1.805996 1.444797 2.889594-1.805996 21.310758-14.086772 42.982716-22.755555 62.848677z"  horiz-adv-x="1024" />

    
    <glyph glyph-name="jiaoshi5" unicode="&#59023;" d="M511.999634 384.000366m-511.999634 0a511.999634 511.999634 0 1 1 1023.999269 0 511.999634 511.999634 0 1 1-1023.999269 0ZM514.011061 115.200558c118.12563 0 218.075273-74.276518 250.952964-176.420446A509.366493 509.366493 0 0 0 511.999634-127.999269c-90.587364 0-175.689017 23.515412-249.490107 64.804526 32.182834 103.167926 132.607905 178.395301 251.501534 178.395301zM268.799808 352.000389a44.799968 38.399973 90 1 1 76.799945 0 44.799968 38.399973 90 1 1-76.799945 0ZM691.199506 352.000389a44.799968 38.399973 90 1 1 76.799945 0 44.799968 38.399973 90 1 1-76.799945 0ZM460.799671 204.800494h102.399927v-140.7999h-102.399927zM307.199781 345.600393m-36.571403 0a36.571402 36.571402 0 1 1 73.142805 0 36.571402 36.571402 0 1 1-73.142805 0ZM729.599479 345.600393m-36.571403 0a36.571402 36.571402 0 1 1 73.142805 0 36.571402 36.571402 0 1 1-73.142805 0ZM307.199781 396.800357a255.999817 211.199849 90 1 1 422.399698 0 255.999817 211.199849 90 1 1-422.399698 0ZM308.991779 384.000366c-7.021709 80.969085 35.181689 121.417056 126.610196 121.417056s147.748466 31.085692 168.959879 93.183933c77.311945-49.261679 119.844486-108.47078 127.634194-177.627301 49.663965 113.371348 18.907415 200.923285-92.306219 262.728955-23.515412 33.791976-66.194238 53.138248-127.890195 58.038815-70.911949 5.631996-135.533617-25.599982-182.125584-69.229664C256.109531 603.538495 249.124393 507.355706 308.955208 384.000366zM568.612165 115.200558l58.587387-10.532564-71.387378-111.067349-43.154254-117.869631V-127.999269L511.999634-126.097556l-0.621714-1.901713-0.036571 3.730283-43.154255 117.869631-71.350806 111.067349 58.587387 10.532564L511.999634 64.65888l56.612531 50.541678zM512.65792 64.000594v-1.023999l28.891407-23.844554-19.5657-15.615989 28.41598-118.747344L511.999634-127.999269l-38.399972 32.767977 28.415979 118.747344-19.529128 15.615989 28.927979 23.844554 0.036571 1.023999 0.585143-0.511999 0.621714 0.511999zM620.799557 418.121484c7.753137 0 15.506275-0.292571 23.22284-0.841142a73.910804 73.910804 0 0 0 56.685674-33.64569l13.165705 2.742855 0.475428-3.437712a25.56341 25.56341 0 0 0-5.156568-17.407988 73.654805 73.654805 0 0 0-66.779381-95.634217 450.34025 450.34025 0 0 0-43.227397 0 73.654805 73.654805 0 0 0-70.107379 75.117661 80.237657 80.237657 0 0 1-21.430842 0.402285l0.073143-1.938284c0-39.314258-30.866264-71.679949-70.107378-73.581662a450.34025 450.34025 0 0 0-43.227398 0 73.654805 73.654805 0 0 0-66.779381 95.634217 25.56341 25.56341 0 0 0-5.156568 17.407988l0.475429 3.437712 13.165705-2.779427a73.910804 73.910804 0 0 0 56.685673 33.645691 313.416919 313.416919 0 0 0 46.445681 0 73.874233 73.874233 0 0 0 54.820533-30.866264c15.250275 3.108569 31.451406 2.925712 48.420537-0.365714 12.324563 17.554273 32.182834 29.549693 55.113103 31.268549a313.416919 313.416919 0 0 0 23.222841 0.841142z m-204.799854-42.642255c-6.692567 0-13.385133-0.256-20.0777-0.731428a31.30512 31.30512 0 0 1-29.001122-31.268549c0-16.530274 13.019419-30.171407 29.513122-30.939407 6.143996-0.292571 12.653705-0.475428 19.5657-0.475428l6.765709 0.073143c4.42514 0.073143 8.703994 0.182857 12.799991 0.365714a31.012549 31.012549 0 0 1 29.513122 30.975978 31.30512 31.30512 0 0 1-29.001122 31.231977 270.738092 270.738092 0 0 1-20.0777 0.731429z m204.799854 0c-6.692567 0-13.385133-0.256-20.0777-0.731428a31.30512 31.30512 0 0 1-29.001123-31.268549c0-16.530274 13.019419-30.171407 29.513122-30.939407 6.143996-0.292571 12.653705-0.475428 19.565701-0.475428l6.765709 0.073143c4.42514 0.073143 8.703994 0.182857 12.799991 0.365714a31.012549 31.012549 0 0 1 29.513122 30.975978 31.30512 31.30512 0 0 1-29.001122 31.231977 270.738092 270.738092 0 0 1-20.0777 0.731429z"  horiz-adv-x="1024" />

    
    <glyph glyph-name="xinzengrenyuan" unicode="&#59025;" d="M409.852884 777.505733h52.744399c2.890104-1.083789 5.780208-2.709473 8.670313-3.251367 119.758688-21.856412 194.901394-129.874052 171.419298-249.090845-7.767155-39.738931-24.204622-74.962074-59.96966-100.250485-22.75957-16.076204-42.629035-38.113247-59.247133-60.872817-47.325454-64.84671-64.666079-138.363733-49.13177-217.119069 7.405892-37.932616 23.482096-74.239548 36.126301-112.352796h-16.076204c-85.25807 0-170.51614-0.180632-255.954842 0-63.401658 0.180632-126.622685 0.541895-190.024343 0.722526v14.992415c1.083789 2.167578 2.528841 4.335156 2.890104 6.683366 29.081672 163.110249 123.371318 268.237784 280.340096 317.911448 3.070736 0.903158 5.780208 2.890104 9.934732 5.057682-6.502734 3.793262-11.379785 6.502734-16.076204 9.57347-123.551949 76.045863-134.751102 248.54895-22.578938 340.851649 31.429882 25.649674 68.278709 38.293879 106.933851 47.144823zM733.725172-17.272888c-38.655142 8.850944-76.045863 20.772623-106.933851 47.144823-68.45934 58.343976-94.83154 132.402893-72.613865 218.925384 22.037044 85.799965 80.019757 139.26689 167.626037 155.884988 119.758688 22.578938 228.318222-54.550714 249.813371-174.309402 0.361263-2.34821 2.167578-4.335156 3.251367-6.502734v-56.537661c-1.083789-2.709473-2.890104-5.418945-3.431999-8.309049-16.979361-83.99365-66.833657-138.905627-147.395308-166.722879-11.018522-3.793262-22.578938-6.322103-33.778091-9.57347h-56.537661z m65.569236 367.404481h-77.129652v-115.784795h-116.146058V157.217146h116.868584v-117.410478c20.41136 0 38.655142 1.083789 56.537661-0.361263 16.076204-1.264421 20.230729 4.877051 19.869465 20.230728-1.083789 31.791145-0.361263 63.58229-0.361263 97.360381 34.86188 0 67.375551 0.722526 99.708591-0.361263 15.353678-0.541895 20.050097 4.877051 18.785676 19.508203-1.083789 13.005468-1.083789 26.3722 0 39.377668 1.264421 15.173046-4.335156 19.508203-19.146939 19.146939-32.333039-1.083789-64.84671-0.361263-99.166696-0.361263 0.180632 39.738931 0.180632 77.129652 0.180631 115.784795z"  horiz-adv-x="1024" />

    
    <glyph glyph-name="jiaoshibaodingjiaocai" unicode="&#59012;" d="M719.5 209.2c-20-19-30.3-39.6-30.4-61.4-0.2-27.6 15.9-51 24.8-61.9 1.5-0.5 3-1.3 4.3-2.4 2.1-1.8 3.2-4.5 3.4-8.3 0.1-0.6 0.1-1.3 0-2-0.3-6.6-4.2-9.9-11.4-9.9H328.6c-11.8 0-21.7 3-29.7 8.9-8 6-14.5 14.2-19.6 24.6-5 10.4-8.6 22.9-10.7 37.4-2.1 14.5-3.1 30-3.1 46.6V551.5c0 32.8 7.1 56.5 21.4 71.2 14.3 14.7 34.6 22 61 22h101.7c17.7 0 35.9 0.1 54.5 0.3 18.6 0.2 36.8 0.3 54.5 0.3h103.8c9.7 0 18.3-2.4 25.6-7.3 7.3-4.9 13.4-11.7 18.3-20.4s8.6-19.1 11.2-31c2.6-11.9 3.9-24.7 3.9-38.3v-333.2c0.3-2.2-0.4-4.5-1.9-5.9zM542 215.2h-66.8c-22.3 0-42.2 0.1-59.7 0.3-17.6 0.2-32.1 0.3-43.6 0.3h-19.3c-7.3 0-14.4-2.7-21.4-8-7-5.3-13.2-12.6-18.8-21.7-5.6-9.2-14.2-20.7-13.3-38.6 2.4-14.8 8.4-24 14.3-32.9 5.9-8.9 12.4-15.9 19.6-20.8 7.1-4.9 14.2-7.3 21.1-7.3H699c-9.6 14.1-20.5 35.9-20.4 61.4 0.1 24 10 46.4 29.2 66.7-60.9 0-116.2 0.2-165.8 0.6zM599.8 184.1c0 38.8 5.1 30.3 18.5 43.2 0.8 6-0.6 59.1-0.7 60.7V659.7c0 15.2-1.4 29.5-4.2 42.8-2.8 13.3-6.8 24.8-12 34.6-5.2 9.7-11.8 17.3-19.6 22.8-7.8 5.5-17 8.2-27.4 8.2H443c-19 0-38.6-0.1-58.5-0.4-20-0.2-39.5-0.4-58.5-0.4H216.8c-28.4 0-50.2-8.2-65.5-24.6-15.3-16.4-23-42.9-23-79.5V250c0-18.5 1.1-35.9 3.4-52 2.2-16.2 6.1-30 11.5-41.7 5.4-11.6 12.4-20.8 21-27.4 8.6-6.6 19.2-10 31.9-10h409.4c4.7 0 8.1 1.4 10.1 4-14.2 5.4-15.8 23.3-15.8 61.2zM180.9 763c-6.1-2.6-11.7-5.8-16.8-9.8v-575h16.8V763zM422 232h-71.7c-23.9 0-45.3 0.1-64.1 0.3-18.9 0.2-34.4 0.3-46.8 0.3h-20.7c-7.8 0-15.5-2.1-23-6.3-7.5-4.2-14.2-10-20.2-17.3-6-7.3-15.2-16.5-14.3-30.7 2.6-11.8 9.1-19 15.4-26.2 6.3-7.1 13.3-12.6 21-16.5 7.7-3.9 15.2-5.8 22.7-5.8h374.3c-10.3 11.2-14.9 26.5-14.7 46.8 0.1 19.1-0.6 39 20.1 55-65.4-0.1-124.8 0.1-178 0.4zM442.9 766.7h94l-0.6-162.2-46.4 22.9-47-22.9zM536.8 603.7l-46.9 23.2-47.5-23.2V767.2h95.1l-0.7-163.5z m-93.4 162.5v-160.9l46.5 22.7 0.2-0.1 45.7-22.6 0.6 160.9h-93zM652.2 321.7h274.3v-352.8H652.2zM824.5 331.1v6.8c0 8.1-6.8 13.5-13.5 13.5h-41.9c-8.1 0-13.5-6.8-13.5-13.5v-8.1H738v-37.9h102.8v39.2h-16.3zM789.3 306.8c-8.1 0-14.9 6.8-14.9 14.9 0 8.1 6.8 14.9 14.9 14.9s14.9-6.8 14.9-14.9c1.4-9.5-6.7-14.9-14.9-14.9zM881.1-3.4H696.9v30.2H881v-30.2z m0 91.3H696.9v-30.2H881v30.2zM756.9 226.6c0-20.4 16.5-36.9 36.9-36.9s36.9 16.5 36.9 36.9-16.5 36.9-36.9 36.9-36.9-16.5-36.9-36.9zM853.3 136.8s-16.5 49.8-59.8 49.8-59.8-49.8-59.8-49.8v-27.3h119.6v27.3zM805.8 170.3c0.6 1.2 0.6 2.5 0.2 3.9-0.5 1.3-1.2 2.6-2.2 3.9-1 1.2-2.2 2.6-3.5 4 0 0-0.8 0.1-1.9 0.4-3.1 1.1-6.5 1.1-9.7 0-1.1-0.3-1.9-0.4-1.9-0.4-1.4-1.4-2.4-2.8-3.2-4-0.8-1-1.4-2.2-1.9-3.4-0.5-1.2-0.5-2.4 0.1-3.4 1.4-2.9 2.6-5.4 3.5-7.5 1-2.2 2.1-3.9 3.2-5.1-0.4-1.8-1-4.5-1.8-7.8-0.8-3.4-1.5-6.9-2.2-10.5-0.7-3.6-1.3-7-1.8-10.2-0.5-3.2-0.7-5.6-0.7-7.2 0-1 0.4-2.3 1.3-3.7 0.9-1.4 1.9-2.9 3.1-4.5 1.2-1.5 2.4-2.8 3.7-3.9 1.3-1 2.4-1.5 3.4-1.5s2.1 0.5 3.5 1.5 2.7 2.2 4 3.5c1.3 1.3 2.4 2.8 3.2 4.3 0.9 1.5 1.3 2.8 1.3 3.8 0 1.2-0.3 3.3-0.9 6.3-0.6 3-1.2 6.3-1.9 10s-1.4 7.3-2.2 10.8c-0.8 3.5-1.5 6.3-2.1 8.3 1.2 1 2.3 2.5 3.4 4.5 1.2 2 2.5 4.7 4 7.9z"  horiz-adv-x="1024" />

    
    <glyph glyph-name="chakantupian-xiazai-lan" unicode="&#59076;" d="M810.666667 512h-170.666667V768H384v-256H213.333333l298.666667-298.666667 298.666667 298.666667zM213.333333 128v-85.333333h597.333334v85.333333H213.333333z"  horiz-adv-x="1024" />

    
    <glyph glyph-name="tupianbianji" unicode="&#59015;" d="M219.70532 652.534c-47.717 0-86.384-38.66-86.384-86.383 0-47.717 38.667-86.378 86.384-86.378 47.722 0 86.383 38.66 86.383 86.378 0.131 47.723-38.529 86.383-86.383 86.383z m794.732-293.208l-30.548 30.548c-12.171 12.033-31.769 12.033-43.934 0l-20.958-20.95 74.488-74.482 20.952 20.95c12.164 12.303 12.164 31.901 0 43.934zM609.03132 58.817l-3.38-77.868 77.861 3.38 295.373 295.373-74.35 74.488L609.03132 58.817z m0 0M771.51232 406.639V712.421c3.789 40.146-25.683 75.835-65.828 79.755H73.44032C33.01732 792.308 0.17332 759.734 0.03532 719.311c0-2.296 0.139-4.594 0.27-6.891v-651.578c-3.65-40.282 25.953-75.833 66.237-79.485 2.296-0.27 4.601-0.27 6.898-0.27h475.974l2.026 78.404 220.211 224.27-0.139 122.878z m-39.875 6.621c-52.587 48.937-120.989 77.195-192.772 79.762-73.128 0-146.263-66.508-219.398-126.263-53.123-39.875-113.01-93.137-152.892-93.137-45.96 4.456-88.541 25.685-119.631 59.882V712.421c0 14.733 11.894 26.627 26.627 26.627h631.571c14.733 0 26.627-11.894 26.627-26.627l-0.132-299.161z m0 0"  horiz-adv-x="1024" />

    
    <glyph glyph-name="xiazai" unicode="&#59245;" d="M65.31 348.47c0.44-5.95 1-11.88 1.64-17.82q1.78-15.29 4.61-30.25c0.7-3.86 1.42-7.71 2.24-11.55 2.57-11.9 5.55-23.65 9-35.18 0.53-1.77 1-3.57 1.6-5.33a449.36 449.36 0 0 1 252.79-277.42l0.69-0.27c12.59-5.3 25.51-10 38.66-14.14 2.1-0.66 4.21-1.23 6.32-1.85q17.13-5.14 34.83-8.95c3.75-0.79 7.52-1.44 11.29-2.13 10.26-1.92 20.63-3.54 31.14-4.75 5.26-0.59 10.53-1 15.8-1.41 9-0.71 18-1.19 27.11-1.37q10.51-0.17 21 0.15c7 0.19 13.87 0.55 20.74 1 9.06 0.69 18.11 1.57 27.11 2.8 4.41 0.59 8.77 1.29 13.15 2 10.79 1.8 21.54 3.88 32.17 6.45 2.58 0.62 5.13 1.31 7.7 2 11.65 3 23.23 6.47 34.61 10.43 2 0.68 3.86 1.42 5.8 2.12q17.13 6.22 33.75 13.79c2.42 1.11 4.79 2.31 7.19 3.47q15.2 7.27 29.87 15.67c3.63 2.1 7.16 4.33 10.73 6.52 8.2 5 16.25 10.25 24.13 15.8 4.9 3.47 9.67 7.11 14.41 10.77 6.23 4.77 12.37 9.64 18.36 14.76 5.74 4.93 11.32 10 16.8 15.25 4.69 4.42 9.32 8.91 13.83 13.57 6 6.23 11.82 12.64 17.49 19.21q5.42 6.28 10.65 12.79 8.92 11.16 17.13 22.87c2.66 3.79 5.24 7.65 7.8 11.55 5.58 8.54 10.93 17.26 15.94 26.19 2.38 4.28 4.6 8.59 6.82 12.91 4.27 8.24 8.35 16.59 12.12 25.12 2.49 5.69 4.74 11.43 7 17.17 3 7.66 5.93 15.35 8.51 23.21 2.16 6.58 4 13.21 5.83 19.84 2.06 7.37 4.07 14.76 5.74 22.27 1.58 7.13 2.83 14.28 4.07 21.43s2.44 14.52 3.33 21.89c0.91 7.53 1.52 15.07 2 22.61 0.5 7.05 0.91 14.12 1.08 21.26 0.19 8.29 0.11 16.56-0.17 24.83q-0.28 9-0.91 17.86c-0.69 9.52-1.64 19-2.94 28.44-0.58 4.33-1.25 8.63-2 12.92-1.75 10.52-3.8 21-6.29 31.35-0.78 3.25-1.66 6.47-2.5 9.7-2.85 10.74-6 21.39-9.63 31.89-1.13 3.25-2.35 6.45-3.55 9.67q-5.49 14.86-12 29.35c-1.94 4.24-4 8.4-6.07 12.57-4 8.15-8.2 16.2-12.68 24.11-3.32 5.77-6.8 11.41-10.35 17-3.72 5.93-7.54 11.81-11.54 17.57-5 7.13-10.24 14.09-15.64 20.91-3.1 3.93-6.21 7.86-9.45 11.69q-10.06 11.88-20.94 23c-2.44 2.52-4.88 5-7.4 7.5q-12.25 12-25.38 23.07c-2 1.72-4.08 3.43-6.16 5.11q-14.21 11.54-29.37 21.99c-1.53 1.05-3.08 2.08-4.63 3.12-9.34 6.22-19 12-28.83 17.49-10.51 5.71-21 11.44-32.09 16a31 31 0 0 1-13.31 3.36 30.49 30.49 0 0 1-28.12-18.34 27.86 27.86 0 0 1 0-23.22 29.94 29.94 0 0 1 16.85-18.17c13.29-6.73 24.93-13.29 36.54-19.86a385.94 385.94 0 0 0 175.5-237.42 378 378 0 0 0-43.13-290.2v-1.69c-48.78-79.27-123.84-136.48-209.87-164.82-3.66-1.23-7.29-2.54-11-3.67-8.21-2.43-16.49-4.51-24.87-6.4-6.68-1.54-13.44-2.82-20.25-4-7.27-1.24-14.5-2.52-21.88-3.35-9.48-1.08-19.13-1.55-28.81-1.93-4.61-0.18-9.12-0.91-13.75-0.92-3.11 0-6.18 0.52-9.29 0.57-11.7 0.25-23.3 0.84-34.74 2.11-7.74 0.85-15.36 2.2-23 3.52-7.19 1.25-14.31 2.64-21.38 4.29-7.74 1.8-15.44 3.65-23.05 5.94-8.18 2.45-16.11 5.41-24.06 8.38-9.7 3.64-19.24 7.6-28.62 12-8.95 4.2-17.75 8.58-26.29 13.43-2.38 1.36-4.94 2.32-7.3 3.73-1.88 1.15-3.35 2.69-5.19 3.86-109.46 67.82-182.74 188.54-182.74 326.35a381.06 381.06 0 0 0 26.71 139.7c0.78 2.09 1 4.25 1.86 6.32 0.8 1.83 1.86 3.53 2.66 5.35a385.16 385.16 0 0 0 17.74 35.64c2.14 4 3.82 8.24 6.05 12.19 2.94 4.93 6.73 9.21 9.87 14 1 1.52 2.13 3 3.16 4.47 39.59 58.14 93.7 105.06 158.1 134.16a31.41 31.41 0 0 1-13.31 59.73 39.62 39.62 0 0 1-11.86-3c-2-0.91-4-2-6-2.89A455.67 455.67 0 0 1 65 412.34c-0.28-4.54-0.53-9.07-0.69-13.64-0.34-8.73-0.36-17.49-0.19-26.25q0.27-12.07 1.19-23.98zM371.49 286.91l117.67-117.55A32 32 0 0 1 512 160H512.42c2.05 0 3.85 0.8 5.8 1.18s4.18 0.44 6.14 1.25A32.09 32.09 0 0 1 535.5 170l117 116.89a32.1 32.1 0 0 1-45.42 45.37l-62.56-62.49V575.92a32.19 32.19 0 0 1-32.1 32.08 32.19 32.19 0 0 1-32.11-32.08v-307l-63.4 63.34a32.1 32.1 0 0 1-45.42-45.37zM479.97 800a32.03 32 0 1 1 64.06 0 32.03 32 0 1 1-64.06 0Z"  horiz-adv-x="1024" />

    
    <glyph glyph-name="shanchu1" unicode="&#59395;" d="M900.096 693.83168h-200.61184V774.96832c0 16.896-13.4656 33.99168-39.20384 33.99168H363.71968c-25.73824 0-39.20384-17.1008-39.20384-33.99168v-81.13664H123.904a31.744 31.744 0 1 1 0-63.488h776.192a31.744 31.744 0 1 1 0 63.488zM388.04992 745.472h247.90016v-51.64032H388.04992V745.472z m392.8064-152.15104a31.744 31.744 0 0 1-31.744-31.744V22.528H277.34528V561.54624a31.744 31.744 0 0 1-63.52896 0v-559.6416a43.78112 43.78112 0 0 1 44.544-42.86464h509.70624a43.78112 43.78112 0 0 1 44.544 42.86464V561.54624a31.744 31.744 0 0 1-31.75424 31.75424zM379.904 159.03232a31.6928 31.6928 0 0 0-31.744 31.68256v253.44a31.70304 31.70304 0 0 0 63.4112 0v-253.44a31.6928 31.6928 0 0 0-31.6672-31.68256z m130.59584 0a31.6928 31.6928 0 0 0-31.70304 31.68256v253.44a31.70304 31.70304 0 0 0 63.4112 0v-253.44a31.6928 31.6928 0 0 0-31.744-31.68256z m130.59584 0a31.6928 31.6928 0 0 0-31.70304 31.68256v253.44a31.70816 31.70816 0 0 0 63.4112 0v-253.44a31.6928 31.6928 0 0 0-31.73376-31.68256z"  horiz-adv-x="1024" />

    
    <glyph glyph-name="jiaoshi4" unicode="&#59016;" d="M511.999634 384.000366m-511.999634 0a511.999634 511.999634 0 1 1 1023.999269 0 511.999634 511.999634 0 1 1-1023.999269 0ZM514.011061 115.200558c118.12563 0 218.075273-74.276518 250.952964-176.420446A509.366493 509.366493 0 0 0 511.999634-127.999269c-90.587364 0-175.689017 23.515412-249.490107 64.804526 32.182834 103.167926 132.607905 178.395301 251.501534 178.395301zM268.799808 352.000389a44.799968 38.399973 90 1 1 76.799945 0 44.799968 38.399973 90 1 1-76.799945 0ZM691.199506 352.000389a44.799968 38.399973 90 1 1 76.799945 0 44.799968 38.399973 90 1 1-76.799945 0ZM460.799671 204.800494h102.399927v-140.7999h-102.399927zM307.199781 345.600393m-36.571403 0a36.571402 36.571402 0 1 1 73.142805 0 36.571402 36.571402 0 1 1-73.142805 0ZM729.599479 345.600393m-36.571403 0a36.571402 36.571402 0 1 1 73.142805 0 36.571402 36.571402 0 1 1-73.142805 0ZM307.199781 396.800357a255.999817 211.199849 90 1 1 422.399698 0 255.999817 211.199849 90 1 1-422.399698 0ZM308.991779 384.000366c-7.021709 80.969085 35.181689 121.417056 126.610196 121.417056s147.748466 31.085692 168.959879 93.183933c77.311945-49.261679 119.844486-108.47078 127.634194-177.627301 49.663965 113.371348 18.907415 200.923285-92.306219 262.728955-23.515412 33.791976-66.194238 53.138248-127.890195 58.038815-70.911949 5.631996-135.533617-25.599982-182.125584-69.229664C256.109531 603.538495 249.124393 507.355706 308.955208 384.000366zM568.612165 115.200558l58.587387-10.532564-71.387378-111.067349-43.154254-117.869631V-127.999269L511.999634-126.097556l-0.621714-1.901713-0.036571 3.730283-43.154255 117.869631-71.350806 111.067349 58.587387 10.532564L511.999634 64.65888l56.612531 50.541678zM512.65792 64.000594v-1.023999l28.891407-23.844554-19.5657-15.615989 28.41598-118.747344L511.999634-127.999269l-38.399972 32.767977 28.415979 118.747344-19.529128 15.615989 28.927979 23.844554 0.036571 1.023999 0.585143-0.511999 0.621714 0.511999zM322.925484 386.377507l25.05141-5.302853-5.302853-25.051411a25.599982 25.599982 0 0 0-19.748557 30.354264zM713.873776 386.377507l-25.051411-5.302853 5.302853-25.051411a25.599982 25.599982 0 0 1 19.748558 30.354264z"  horiz-adv-x="1024" />

    
    <glyph glyph-name="bianji3" unicode="&#59010;" d="M816.1-14.8H159.6c-40.5 0-73.4 30.9-73.4 68.8V694c0 37.9 32.9 68.8 73.4 68.8h335c10.9 0 19.8-8.9 19.8-19.8s-8.9-19.8-19.8-19.8h-335c-18.6 0-33.8-13.1-33.8-29.2v-640c0-16.1 15.2-29.2 33.8-29.2h656.5c18.6 0 33.8 13.1 33.8 29.2l-1.5 303.8c-0.1 10.9 8.8 19.8 19.7 19.9 11 0 19.8-8.8 19.9-19.7l1.5-303.9c0-38-32.9-68.9-73.4-68.9zM745.5 363.1l1-205.8c0-18.3-16.3-33.2-36.3-33.2H265.5c-20.1 0-36.3 14.9-36.3 33.2V590.7c0 18.3 16.3 33.2 36.3 33.2h226.9M475.8 334c-5.2 0-10.4 2.1-14.3 6.1L376.7 429c-3.7 3.9-5.7 9.1-5.5 14.5 0.2 5.4 2.6 10.4 6.7 14l347.6 307.3c8 7 20.1 6.5 27.4-1.2l84.8-88.9c3.7-3.9 5.7-9.1 5.5-14.5-0.2-5.4-2.6-10.4-6.7-14L488.9 338.9c-3.7-3.3-8.4-4.9-13.1-4.9z m-56.3 107.5l57.5-60.2 317.9 281-57.5 60.2-317.9-281zM824.2 641.9c-5.2 0-10.4 2.1-14.3 6.1L725 736.9c-3.7 3.9-5.7 9.1-5.5 14.5 0.2 5.4 2.6 10.4 6.7 14l52.6 46.5c8 7 20.1 6.5 27.4-1.2l84.8-88.9c3.7-3.9 5.7-9.1 5.5-14.5-0.2-5.4-2.6-10.4-6.7-14l-52.6-46.5c-3.7-3.3-8.4-4.9-13-4.9z m-56.3 107.5l57.5-60.2 22.9 20.2-57.5 60.2-22.9-20.2zM332.6 289.3c-5.5 0-10.9 2.3-14.8 6.6-5.2 5.8-6.5 14.1-3.4 21.2l59 134.1c2.7 6.1 8.2 10.4 14.7 11.5 6.5 1.1 13.2-1 17.7-5.8l84.8-88.9c4.7-4.9 6.6-12 4.8-18.6-1.7-6.6-6.7-11.9-13.2-13.9l-143.8-45.1c-1.8-0.8-3.8-1.1-5.8-1.1zM397.7 408l-29.5-66.9 71.8 22.5-42.3 44.4zM724.2 248.1H595.6c-10.7 0-19.4 8.7-19.4 19.4v0.9c0 10.7 8.7 19.4 19.4 19.4h128.6c10.7 0 19.4-8.7 19.4-19.4v-0.9c0-10.7-8.7-19.4-19.4-19.4zM752.5 115.8H223.2c-10 0-18.2 8.2-18.2 18.2v3.2c0 10 8.2 18.2 18.2 18.2h529.3c10 0 18.2-8.2 18.2-18.2v-3.2c0-10-8.2-18.2-18.2-18.2z"  horiz-adv-x="1024" />

    
    <glyph glyph-name="bianji4" unicode="&#59011;" d="M64-64V832h384v-128H192v-640h640V448h128v-512H64z m320 384L768 832h192L576 320h-192z"  horiz-adv-x="1024" />

    
    <glyph glyph-name="ziliaoku" unicode="&#59131;" d="M59.733333 287.488V780.8c0 28.8 23.381333 52.181333 52.181334 52.181333h82.048c28.842667 0 52.181333-23.381333 52.181333-52.181333v-779.52c0-28.8-23.338667-52.138667-52.181333-52.138667H111.914667A52.181333 52.181333 0 0 0 59.733333 1.28V116.053333a29.866667 29.866667 0 1 1-59.733333 0v-114.773333a111.914667 111.914667 0 0 1 111.914667-111.872h82.048A111.914667 111.914667 0 0 1 305.92 1.28V780.8a111.914667 111.914667 0 0 1-111.914667 111.914667H111.914667A111.914667 111.914667 0 0 1 0 780.8v-493.312a29.866667 29.866667 0 0 1 59.733333 0zM397.44 260.608m106.666667 0l16.426666 0q106.666667 0 106.666667-106.666667l0-154.24q0-106.666667-106.666667-106.666666l-16.426666 0q-106.666667 0-106.666667 106.666666l0 154.24q0 106.666667 106.666667 106.666667ZM428.970667 287.488V780.8c0 28.8 23.338667 52.181333 52.181333 52.181333H563.2c28.8 0 52.181333-23.381333 52.181333-52.181333v-779.52c0-28.8-23.381333-52.138667-52.181333-52.138667h-82.048a52.181333 52.181333 0 0 0-52.181333 52.181334V116.053333a29.866667 29.866667 0 1 1-59.733334 0v-114.773333a111.914667 111.914667 0 0 1 111.914667-111.872H563.2a111.914667 111.914667 0 0 1 111.914667 111.914667V780.8A111.914667 111.914667 0 0 1 563.2 892.714667h-82.048A111.914667 111.914667 0 0 1 369.237333 780.8v-493.312a29.866667 29.866667 0 0 1 59.733334 0zM1008.298667 527.616l72.32-514.474667a52.181333 52.181333 0 0 0-44.416-58.922666l-81.237334-11.434667A52.181333 52.181333 0 0 0 896-12.8L787.541333 759.125333a52.181333 52.181333 0 0 0 44.373334 58.922667l81.28 11.434667A52.181333 52.181333 0 0 0 972.117333 785.066667l14.08-100.352a29.866667 29.866667 0 0 1 59.178667 8.32l-14.08 100.352a111.914667 111.914667 0 0 1-126.421333 95.232l-81.237334-11.434667a111.914667 111.914667 0 0 1-95.274666-126.378667l108.501333-771.925333a111.914667 111.914667 0 0 1 126.378667-95.232l81.28 11.434667a111.914667 111.914667 0 0 1 95.232 126.378666L1067.52 535.936a29.866667 29.866667 0 0 1-59.178667-8.32zM87.850667 615.68h97.962666a22.954667 22.954667 0 0 1 0 45.952H87.893333a22.954667 22.954667 0 1 1 0-45.952zM87.850667 410.581333h97.962666a22.954667 22.954667 0 0 1 0 45.909334H87.893333a22.954667 22.954667 0 1 1 0-45.909334zM481.152 537.173333h97.962667a22.954667 22.954667 0 0 1 0 45.994667h-97.962667a22.954667 22.954667 0 1 1 0-45.952zM87.850667 246.442667h97.962666a22.954667 22.954667 0 1 1 0 45.952H87.893333a22.954667 22.954667 0 0 1 0-45.952zM481.152 291.072h97.962667a22.954667 22.954667 0 0 1 0 45.952h-97.962667a22.954667 22.954667 0 0 1 0-45.952z"  horiz-adv-x="1152" />

    
    <glyph glyph-name="guanlian-" unicode="&#59003;" d="M396.8 262.4c-102.4 0-172.8 51.2-172.8 121.6 0 70.4 70.4 115.2 172.8 115.2s172.8-44.8 172.8-115.2-70.4-121.6-172.8-121.6z m0 211.2C326.4 473.6 249.6 448 249.6 384c0-64 70.4-96 147.2-96C467.2 288 544 320 544 384S467.2 473.6 396.8 473.6zM627.2 262.4c-102.4 0-172.8 51.2-172.8 121.6 0 70.4 70.4 115.2 172.8 115.2s172.8-44.8 172.8-115.2c-6.4-70.4-76.8-121.6-172.8-121.6z m0 211.2C550.4 473.6 480 448 480 384c0-64 70.4-96 147.2-96C697.6 288 768 320 768 384s-70.4 89.6-140.8 89.6zM512-64c-249.6 0-448 198.4-448 448 0 243.2 198.4 441.6 448 441.6 243.2 0 441.6-198.4 441.6-441.6 0-249.6-198.4-448-441.6-448zM512 800C281.6 800 89.6 614.4 89.6 384s185.6-422.4 422.4-422.4 422.4 185.6 422.4 422.4c-6.4 230.4-192 416-422.4 416z"  horiz-adv-x="1024" />

    
    <glyph glyph-name="guanlian" unicode="&#59007;" d="M955.6-25.6H409.7c-37.8 0-68.4 30.6-68.4 68.4V452.2c0 37.8 30.6 68.4 68.4 68.4H512c18.1 0 32.9-14.1 34.1-31.9 1.3-20-14.9-36.4-34.9-36.4h-71.6c-16.6 0-30-13.4-30-30v-349.6c0-16.6 13.4-30 30-30h486.1c16.6 0 30 13.4 30 30V422.3c0 16.6-13.4 30-30 30H785.9c-20 0-36.2 16.4-34.9 36.4 1.2 17.8 16 31.9 34.1 31.9h170.6c37.8 0 68.4-30.6 68.4-68.4v-409.4c-0.1-37.8-30.7-68.4-68.5-68.4zM614.3 247.5H512c-18.8 0-34.1 15.3-34.1 34.1 0 18.9 15.3 34.1 34.1 34.1h72.4c16.6 0 30 13.4 30 30V695.3c0 16.6-13.4 30-30 30H98.3c-16.6 0-30-13.4-30-30v-349.6c0-16.6 13.4-30 30-30h139.9c19.9 0 36.2-16.6 34.9-36.4-1.2-17.8-16-31.9-34.1-31.9H68.4C30.6 247.5 0 278.1 0 315.8V725.2c0 37.8 30.6 68.4 68.4 68.4h545.9c37.8 0 68.4-30.6 68.4-68.4v-409.4c0-37.7-30.6-68.3-68.4-68.3z"  horiz-adv-x="1024" />

    
    <glyph glyph-name="guanlianguanlianjiluguanlianshezhi" unicode="&#59188;" d="M401.536 330.88a36.416 36.416 0 0 0 6.624 48.832 31.392 31.392 0 0 0 45.824-7.04c22.72-32.416 57.568-52.672 95.424-55.552a126.4 126.4 0 0 1 101.888 40.512l97.728 104.256c49.6 54.72 48.896 141.856-1.568 195.648a124.992 124.992 0 0 1-183.136 2.048l-56.288-59.68a31.392 31.392 0 0 0-31.808-9.408 33.856 33.856 0 0 0-23.296 25.024 36.416 36.416 0 0 0 8.992 33.856l56.576 60.032c77.184 79.264 199.616 77.952 275.2-2.912 75.616-80.96 76.512-211.488 1.984-293.536l-98.144-104.704c-40.32-42.912-96.064-65.12-152.864-60.704-56.768 4.288-109.024 34.688-143.136 83.328z m183.936 111.232a36.416 36.416 0 0 0-6.656-48.832 31.392 31.392 0 0 0-45.76 7.04 128.96 128.96 0 0 1-95.456 55.584 126.4 126.4 0 0 1-101.92-40.512l-97.728-104.288c-49.6-54.72-48.864-141.824 1.6-195.648 50.496-53.792 132.096-54.592 183.04-2.08l55.936 59.648a31.36 31.36 0 0 0 31.616 9.024c11.52-3.52 20.352-12.928 23.104-24.64a36.48 36.48 0 0 0-8.448-33.728l-56.32-60.096c-77.12-79.232-199.584-77.92-275.168 2.944-75.648 80.896-76.512 211.456-1.984 293.536l98.144 104.672c40.256 42.912 96 65.12 152.832 60.704 56.8-4.288 108.992-34.688 143.168-83.328z m237.184-93.12h32.672c18.048 0 32.672-15.648 32.672-34.976s-14.624-35.008-32.64-35.008h-32.704c-18.016 0-32.64 15.68-32.64 35.008 0 19.328 14.624 34.976 32.64 34.976z m-130.944-140h163.584c18.048 0 32.704-15.68 32.704-34.976 0-19.328-14.656-35.008-32.704-35.008h-163.584c-18.048 0-32.704 15.68-32.704 34.976 0 19.328 14.656 35.008 32.704 35.008z m-98.016-138.976h261.6c18.048 0 32.704-15.712 32.704-35.04S873.344 0 855.296 0h-261.6c-18.048 0-32.704 15.648-32.704 34.976s14.656 35.04 32.704 35.04z m-192.16 260.864a36.416 36.416 0 0 0 6.624 48.832 31.392 31.392 0 0 0 45.824-7.04c22.72-32.416 57.568-52.672 95.424-55.552a126.4 126.4 0 0 1 101.888 40.512l97.728 104.256c49.6 54.72 48.896 141.856-1.568 195.648a124.992 124.992 0 0 1-183.136 2.048l-56.288-59.68a31.392 31.392 0 0 0-31.808-9.408 33.856 33.856 0 0 0-23.296 25.024 36.416 36.416 0 0 0 8.992 33.856l56.576 60.032c77.184 79.264 199.616 77.952 275.2-2.912 75.616-80.96 76.512-211.488 1.984-293.536l-98.144-104.704c-40.32-42.912-96.064-65.12-152.864-60.704-56.768 4.288-109.024 34.688-143.136 83.328z m183.936 111.232a36.416 36.416 0 0 0-6.656-48.832 31.392 31.392 0 0 0-45.76 7.04 128.96 128.96 0 0 1-95.456 55.584 126.4 126.4 0 0 1-101.92-40.512l-97.728-104.288c-49.6-54.72-48.864-141.824 1.6-195.648 50.496-53.792 132.096-54.592 183.04-2.08l55.936 59.648a31.36 31.36 0 0 0 31.616 9.024c11.52-3.52 20.352-12.928 23.104-24.64a36.48 36.48 0 0 0-8.448-33.728l-56.32-60.096c-77.12-79.232-199.584-77.92-275.168 2.944-75.648 80.896-76.512 211.456-1.984 293.536l98.144 104.672c40.256 42.912 96 65.12 152.832 60.704 56.8-4.288 108.992-34.688 143.168-83.328z m237.184-93.12h32.672c18.048 0 32.672-15.648 32.672-34.976s-14.624-35.008-32.64-35.008h-32.704c-18.016 0-32.64 15.68-32.64 35.008 0 19.328 14.624 34.976 32.64 34.976z m-130.944-140h163.584c18.048 0 32.704-15.68 32.704-34.976 0-19.328-14.656-35.008-32.704-35.008h-163.584c-18.048 0-32.704 15.68-32.704 34.976 0 19.328 14.656 35.008 32.704 35.008z m-98.016-138.976h261.6c18.048 0 32.704-15.712 32.704-35.04S873.344 0 855.296 0h-261.6c-18.048 0-32.704 15.648-32.704 34.976s14.656 35.04 32.704 35.04z"  horiz-adv-x="1024" />

    
    <glyph glyph-name="zhankai" unicode="&#59018;" d="M896 896h128v-128h-128v128zM0 896h704v-128h-704v128zM896 448h128v-128h-128v128zM0 448h704v-128h-704v128zM896 0h128v-128h-128v128zM0 0h704v-128h-704v128z"  horiz-adv-x="1024" />

    
    <glyph glyph-name="jianshao" unicode="&#59130;" d="M61.44 384a450.56 450.56 0 1 1 901.12 0 450.56 450.56 0 0 1-901.12 0zM1024 384c0-282.7776-229.2224-512-512-512S0 101.2224 0 384 229.2224 896 512 896s512-229.2224 512-512zM256.1024 435.2h511.7952a51.1488 51.1488 0 1 0 0-102.4H256.1024a51.1488 51.1488 0 1 0 0 102.4z"  horiz-adv-x="1024" />

    
    <glyph glyph-name="kecheng" unicode="&#58987;" d="M1010.432 605.952c0 15.872-15.872 47.36-39.424 55.296-23.552 15.872-47.36 23.552-70.912 31.488V755.968c0 39.424-31.488 70.912-78.848 70.912h-165.632c-39.424 0-78.848-31.488-78.848-70.912v-55.296H568.32c-15.872-7.936-39.424-15.872-55.296-23.552C442.112 708.608 370.944 724.48 300.032 724.48c-142.08 0-244.736-63.232-252.416-70.912C24.064 645.632 16.128 622.08 16.128 598.272v-528.64c0-23.552 7.936-39.424 31.488-55.296 15.872-15.872 39.424-15.872 63.232-15.872 0 0 118.272 23.552 228.864 23.552 63.232 0 110.592-7.936 157.952-23.552 7.936 0 15.872-7.936 23.552-7.936h23.552s110.592 31.488 173.568 31.488c63.232 0 134.144-15.872 173.568-23.552h47.36c15.872 0 31.488 0 39.424 7.936 23.552 15.872 39.424 39.424 39.424 63.232l-7.68 536.32zM639.488 755.968c0 7.936 7.936 15.872 15.872 15.872h165.632c7.936 0 15.872-7.936 15.872-15.872v-394.496l-55.296 23.552c-31.488 15.872-55.296 15.872-86.784 0L639.488 353.28V755.968zM947.2 53.504h-47.36c-39.424 7.936-110.592 23.552-181.504 23.552s-189.44-31.488-189.44-31.488h-15.872c-55.296 15.872-102.656 23.552-173.568 23.552-118.272 0-244.736-23.552-244.736-23.552h-15.872c-7.936 0-7.936 7.936-7.936 15.872V598.016c0 7.936 7.936 7.936 7.936 15.872 7.936 7.936 94.72 55.296 220.928 55.296 63.232 0 134.144-15.872 197.376-47.36l15.872-7.936 15.872 7.936c7.936 7.936 31.488 7.936 55.296 15.872v-378.88l142.08 63.232c15.872 7.936 23.552 7.936 39.424 0l142.08-63.232V621.824c15.872-7.936 31.488-15.872 47.36-15.872 7.936 0 7.936-7.936 7.936-15.872V61.44c-7.936 0-15.872 0-15.872-7.936zM410.624 503.296H189.696c-15.872 0-23.552-7.936-23.552-23.552 0-15.872 15.872-23.552 23.552-23.552h220.928c15.872 0 23.552 7.936 23.552 23.552s-7.936 23.552-23.552 23.552z m0-102.656H189.696c-15.872 0-23.552-7.936-23.552-23.552 0-15.872 15.872-23.552 23.552-23.552h220.928c15.872 0 23.552 7.936 23.552 23.552 0 15.872-7.936 23.552-23.552 23.552z m0-102.4H189.696c-15.872 0-23.552-7.936-23.552-23.552 0-15.872 15.872-23.552 23.552-23.552h220.928c15.872 0 23.552 7.936 23.552 23.552s-7.936 23.552-23.552 23.552z"  horiz-adv-x="1024" />

    
    <glyph glyph-name="zengjia" unicode="&#58988;" d="M818.7-29.7H198.5c-57.5 0-104.3 46.8-104.3 104.3V694.8c0 57.5 46.8 104.3 104.3 104.3h620.2c57.5 0 104.3-46.8 104.3-104.3v-620.2c0-57.5-46.8-104.3-104.3-104.3zM198.5 759.7c-35.8 0-64.8-29.1-64.8-64.8v-620.2c0-35.8 29.1-64.8 64.8-64.8h620.2c35.8 0 64.8 29.1 64.8 64.8V694.8c0 35.8-29.1 64.8-64.8 64.8H198.5zM711.6 121.6H305.5c-30.6 0-55.4 24.8-55.4 55.4V583.1c0 30.6 24.8 55.4 55.4 55.4h406.1c30.6 0 55.4-24.8 55.4-55.4V177c0-30.6-24.8-55.4-55.4-55.4zM716.7 365H305.1c-10.9 0-19.7 8.8-19.7 19.7 0 10.9 8.8 19.7 19.7 19.7h411.6c10.9 0 19.7-8.8 19.7-19.7 0-10.9-8.8-19.7-19.7-19.7zM528.3 587.3v-411.6c0-10.9-8.8-19.7-19.7-19.7-10.9 0-19.7 8.8-19.7 19.7V587.3c0 10.9 8.8 19.7 19.7 19.7 10.9 0 19.7-8.8 19.7-19.7z"  horiz-adv-x="1024" />

    
    <glyph glyph-name="-" unicode="&#58989;" d="M693.5 643.8c0-99.7-180.5-221.5-180.5-221.5S332.5 544.1 332.5 643.8 413.3 824.3 513 824.3s180.5-80.8 180.5-180.5zM513 412.6l-4.5 3c-0.5 0.3-46.2 31.3-91.3 74.2-61.5 58.5-92.7 110.3-92.7 153.9 0 103.9 84.6 188.5 188.5 188.5s188.5-84.6 188.5-188.5c0-43.6-31.2-95.4-92.7-153.9-45.1-42.9-90.8-73.9-91.3-74.2l-4.5-3z m0 403.7c-95.1 0-172.5-77.4-172.5-172.5 0-48.7 47.7-104.3 87.8-142.3 36-34.2 72.3-60.7 84.7-69.4 12.4 8.8 48.9 35.3 84.9 69.6 40 38 87.6 93.6 87.6 142.2 0 95-77.4 172.4-172.5 172.4zM693.5 125.1c0 99.7-180.5 221.5-180.5 221.5S332.5 224.8 332.5 125.1 413.3-55.4 513-55.4s180.5 80.8 180.5 180.5zM513-63.4c-103.9 0-188.5 84.6-188.5 188.5 0 43.6 31.2 95.4 92.7 153.9 45.1 42.9 90.8 73.9 91.3 74.2l4.5 3 4.5-3c0.5-0.3 46.2-31.3 91.3-74.2 61.5-58.5 92.7-110.3 92.7-153.9 0-103.9-84.6-188.5-188.5-188.5z m0 400.3c-12.4-8.8-48.9-35.3-84.9-69.6-40-38-87.6-93.6-87.6-142.2 0-95.1 77.4-172.5 172.5-172.5S685.5 30 685.5 125.1c0 48.6-47.6 104.2-87.6 142.2-36 34.3-72.5 60.8-84.9 69.6zM575.5-5.7c6.3 2.9 12.5 6.2 18.3 9.9M578.8-13l-6.6 14.6c6 2.7 11.8 5.9 17.3 9.4l8.6-13.5c-6.2-3.9-12.7-7.5-19.3-10.5zM454.3-7.4c18-7.6 37.9-11.9 58.7-11.9 11.1 0 22 1.2 32.5 3.5M513-27.2c-21.4 0-42.2 4.2-61.8 12.5l6.2 14.7c17.6-7.4 36.3-11.2 55.6-11.2 10.4 0 20.7 1.1 30.8 3.3l3.4-15.6c-11.2-2.5-22.7-3.7-34.2-3.7zM548.9 373.3c-3 4.2-4.6 6.6-4.7 6.7l-3 4.5 3 4.5c0.1 0.1 1.7 2.5 4.7 6.7l13-9.3c-0.5-0.7-0.9-1.3-1.4-1.9 0.4-0.6 0.9-1.2 1.4-1.9l-13-9.3zM772.5 196h-0.2c-4.7 0-9.5 0.4-14.4 1.1l2.4 15.8c4.1-0.6 8.1-0.9 12-0.9h2.6l0.2-16h-2.6z m19.4 1l-1.6 15.9c5.1 0.5 10.2 1.3 15.2 2.2l3.1-15.7c-5.5-1-11.1-1.9-16.7-2.4z m-50.7 3.9c-5.2 1.6-10.5 3.5-15.9 5.8l6.3 14.7c4.8-2.1 9.6-3.8 14.2-5.2l-4.6-15.3z m83.6 2.5l-4.4 15.4c4.9 1.4 9.8 3.1 14.5 4.9l5.8-14.9c-5.2-2.1-10.6-3.9-15.9-5.4zM710.2 214c-4.7 2.5-9.5 5.4-14.3 8.4l8.6 13.5c4.5-2.9 9-5.5 13.3-7.9l-7.6-14z m145.8 1.5l-7.1 14.3c4.6 2.3 9.1 4.8 13.4 7.4l8.4-13.6c-4.8-2.9-9.7-5.6-14.7-8.1z m-173.7 16.2c-4.3 3.1-8.7 6.4-13.1 9.9l10 12.5c4.2-3.3 8.4-6.5 12.5-9.5l-9.4-12.9z m202.2 1.3l-9.5 12.9c4.1 3 8.1 6.3 11.9 9.7l10.6-12c-4.1-3.8-8.5-7.3-13-10.6z m-228 19.1c-4 3.5-8.1 7.1-12.2 10.9l10.9 11.7c3.9-3.6 7.9-7.2 11.8-10.5l-10.5-12.1z m253 3.1l-11.6 11c3.5 3.7 6.9 7.6 10 11.6l12.6-9.9c-3.5-4.4-7.2-8.7-11-12.7z m-276.9 19.1c-3.8 3.7-7.6 7.6-11.4 11.6l11.5 11.1c3.7-3.9 7.5-7.7 11.1-11.3l-11.2-11.4z m297.6 7.2l-13.4 8.8c2.8 4.3 5.4 8.7 7.8 13.2l14.1-7.5c-2.5-5-5.4-9.9-8.5-14.5zM610 297.7c-3.6 3.9-7.2 8-10.8 12.1l12 10.5c3.5-4 7.1-8 10.6-11.8L610 297.7zM946 311l-14.7 6.2c2 4.7 3.8 9.5 5.3 14.4l15.2-4.9c-1.7-5.3-3.6-10.6-5.8-15.7z m-357.4 11.2c-3.5 4.1-6.9 8.3-10.3 12.5l12.4 10.1c3.3-4.1 6.7-8.3 10.1-12.3l-12.2-10.3z m367.6 20.7l-15.6 3.5c1.1 5 2 10 2.7 15.1l15.9-2.1c-0.7-5.6-1.7-11.1-3-16.5z m-388 4.5c-3.3 4.3-6.6 8.6-9.8 12.9l12.8 9.6c3.1-4.2 6.4-8.5 9.6-12.7l-12.6-9.8zM960.7 376l-16 0.7c0.1 2.6 0.2 5.2 0.2 7.7s-0.1 5.1-0.2 7.6l16 0.7c0.1-2.7 0.2-5.5 0.2-8.3 0-2.8-0.1-5.6-0.2-8.4z m-389.4 23.2l-12.8 9.6c3.2 4.3 6.5 8.6 9.8 12.9l12.6-9.8c-3.3-4.3-6.5-8.5-9.6-12.7z m372.1 8.1c-0.7 5-1.6 10.1-2.7 15.1l15.6 3.5c1.2-5.4 2.2-11 2.9-16.5l-15.8-2.1z m-352.6 17l-12.4 10.1c3.4 4.2 6.9 8.4 10.3 12.5l12.2-10.3c-3.4-4-6.8-8.1-10.1-12.3z m345.8 12.9c-1.6 4.8-3.3 9.7-5.3 14.4l14.7 6.2c2.2-5.1 4.1-10.4 5.8-15.7l-15.2-4.9z m-325.3 11.5l-12 10.6c3.6 4.1 7.3 8.2 10.8 12.1l11.8-10.8c-3.5-3.9-7.1-7.9-10.6-11.9z m313.4 16.7c-2.4 4.5-5 8.9-7.8 13.2l13.4 8.7c3-4.7 5.9-9.5 8.5-14.4l-14.1-7.5z m-291.9 6.7l-11.5 11.1c3.8 4 7.7 7.9 11.4 11.6l11.2-11.4c-3.7-3.7-7.4-7.5-11.1-11.3zM908 491c-3.1 4-6.5 7.9-10 11.6l11.7 11c3.8-4.1 7.5-8.3 10.9-12.7L908 491z m-252.7 3.3L644.5 506c4.1 3.8 8.2 7.4 12.2 10.9l10.5-12.1c-4-3.4-7.9-6.9-11.9-10.5z m231.7 19c-3.8 3.4-7.8 6.6-11.9 9.7l9.5 12.8c4.5-3.3 8.8-6.9 13-10.6L887 513.3z m-207.8 1.5l-10 12.5c4.4 3.5 8.8 6.8 13.1 9.9l9.3-13c-4-2.9-8.2-6-12.4-9.4z m183.2 16.8c-4.3 2.7-8.8 5.2-13.4 7.4l7.1 14.3c5-2.5 9.9-5.2 14.7-8.1l-8.4-13.6zM704.6 533l-8.6 13.5c4.8 3.1 9.6 5.9 14.3 8.4l7.6-14.1c-4.3-2.3-8.8-4.9-13.3-7.8zM835 545.2c-4.7 1.8-9.6 3.5-14.5 4.9l4.5 15.4c5.3-1.6 10.7-3.4 15.9-5.4l-5.9-14.9z m-103.2 2.4l-6.3 14.7c5.4 2.3 10.7 4.3 15.9 5.8l4.6-15.3c-4.6-1.4-9.4-3.2-14.2-5.2z m73.8 6.2c-5 1-10.1 1.7-15.2 2.3l1.7 15.9c5.5-0.6 11.1-1.4 16.6-2.5l-3.1-15.7z m-45.1 2.3l-2.3 15.8c4.8 0.7 9.6 1.1 14.2 1.1h3l-0.3-16h-2.8c-3.8 0-7.8-0.3-11.8-0.9zM253.6 204c99.7 0 221.5 180.5 221.5 180.5S353.3 565 253.6 565 73.1 484.1 73.1 384.5 154 204 253.6 204zM253.6 196c-103.9 0-188.5 84.6-188.5 188.5S149.7 573 253.6 573c43.6 0 95.4-31.2 153.9-92.7 42.9-45.1 73.9-90.8 74.2-91.3l3-4.5-3-4.5c-0.3-0.5-31.3-46.2-74.2-91.3-58.4-61.5-110.2-92.7-153.9-92.7z m0 361c-95.1 0-172.5-77.4-172.5-172.5S158.5 212 253.6 212c48.7 0 104.3 47.7 142.3 87.8 34.2 36 60.7 72.3 69.4 84.7-8.8 12.4-35.3 48.9-69.6 84.9-37.9 39.9-93.4 87.6-142.1 87.6zM551.3 361.4h-1c-12.5 0-22.6 10.1-22.6 22.6v1c0 12.5 10.1 22.6 22.6 22.6h1c12.5 0 22.6-10.1 22.6-22.6v-1c0-12.5-10.1-22.6-22.6-22.6zM551.3 353.4h-1c-16.8 0-30.6 13.7-30.6 30.6v1c0 16.8 13.7 30.6 30.6 30.6h1c16.8 0 30.6-13.7 30.6-30.6v-1c0-16.9-13.7-30.6-30.6-30.6z m-0.9 46.1c-8 0-14.6-6.5-14.6-14.6v-1c0-8 6.5-14.6 14.6-14.6h1c8 0 14.6 6.5 14.6 14.6v1c0 8-6.5 14.6-14.6 14.6h-1z"  horiz-adv-x="1024" />

    
    <glyph glyph-name="chakan1" unicode="&#58990;" d="M596.712727 337.454545a139.636364 139.636364 0 0 0-55.389091 267.869091A369.803636 369.803636 0 0 1 405.643636 640a369.105455 369.105455 0 0 1-104.494545-161.047273C349.090909 337.454545 465.454545 242.734545 594.618182 242.734545a279.272727 279.272727 0 0 1 162.909091 53.992728 369.570909 369.570909 0 0 1-32.581818 126.138182A139.636364 139.636364 0 0 0 596.712727 337.454545zM254.603636 471.272727l-2.094545 6.981818 2.094545 6.981819a426.589091 426.589091 0 0 0 83.549091 151.505454 372.363636 372.363636 0 1 1 418.909091-395.636363 322.094545 322.094545 0 0 0-162.909091-45.149091c-151.970909 0.232727-288.116364 110.778182-339.549091 275.316363zM676.305455 498.967273h1.861818a373.992727 373.992727 0 0 1-61.905455 61.44v-1.629091a60.276364 60.276364 0 0 1 60.043637-59.810909zM934.632727 485.236364c-51.432727 164.538182-188.043636 275.316364-340.014545 275.316363a340.014545 340.014545 0 0 1-256-123.810909 426.589091 426.589091 0 0 1-83.549091-151.505454l-2.094546-6.981819 2.094546-6.981818c50.967273-164.538182 187.112727-275.083636 339.549091-275.083636a322.094545 322.094545 0 0 1 162.909091 45.149091 403.083636 403.083636 0 0 1 177.105454 230.167273l2.094546 6.981818z m-177.105454-188.509091a279.272727 279.272727 0 0 0-162.909091-53.992728C465.454545 242.734545 349.090909 337.454545 301.149091 478.254545A369.105455 369.105455 0 0 0 405.643636 640a285.556364 285.556364 0 0 0 188.974546 74.705455c129.396364 0 246.458182-94.487273 293.469091-235.52a361.658182 361.658182 0 0 0-130.56-182.69091zM457.076364 477.090909a139.636364 139.636364 0 1 1 270.196363 49.338182 60.043636 60.043636 0 0 0-49.105454-28.392727h-1.861818a60.276364 60.276364 0 0 0-60.276364 60.276363v1.629091a60.043636 60.043636 0 0 0 27.229091 48.872727 139.636364 139.636364 0 0 1-186.181818-131.490909z"  horiz-adv-x="1024" />

    
    <glyph glyph-name="tijiaochenggong" unicode="&#59182;" d="M512 896C229.668571 896 0 666.331429 0 384s229.668571-512 512-512 512 229.668571 512 512S794.331429 896 512 896z m307.2-343.771429s-267.702857-295.497143-327.68-365.714285c-59.977143-70.217143-106.788571 0-106.788571 0L210.651429 366.445714s-27.794286 42.422857 21.942857 81.92c46.811429 38.034286 84.845714 0 84.845714 0l122.88-128.731428L746.057143 604.891429s29.257143 20.48 59.977143-5.851429c23.405714-21.942857 13.165714-46.811429 13.165714-46.811429z"  horiz-adv-x="1024" />

    
    <glyph glyph-name="bianji2" unicode="&#58993;" d="M891.733 556.8c-6.4 0-14.933 2.133-21.333 8.533L753.067 665.6c-12.8 10.667-14.934 32-4.267 44.8s32 14.933 44.8 4.267L910.933 614.4c12.8-10.667 14.934-32 4.267-44.8-4.267-8.533-14.933-12.8-23.467-12.8zM486.4 200.533c-8.533 0-17.067 2.134-25.6 8.534-12.8 10.666-17.067 27.733-10.667 42.666l51.2 174.934c8.534 21.333 19.2 40.533 32 55.466l268.8 320c10.667 12.8 25.6 21.334 42.667 21.334 17.067 2.133 32-4.267 44.8-14.934l91.733-78.933c25.6-21.333 29.867-61.867 6.4-87.467L721.067 326.4c-12.8-17.067-29.867-29.867-49.067-40.533h-2.133l-166.4-78.934c-4.267-4.266-10.667-6.4-17.067-6.4zM512 236.8z m-34.133 27.733s-2.134 0-2.134-2.133l2.134 2.133zM851.2 759.467L582.4 443.733c-8.533-10.666-14.933-21.333-19.2-34.133L526.933 288l115.2 55.467c10.667 6.4 21.334 14.933 29.867 25.6l268.8 313.6-89.6 76.8zM657.067 313.6zM424.533-91.733h-134.4c-128 0-230.4 104.533-230.4 230.4V520.533c0 128 104.534 230.4 230.4 230.4h192c17.067 0 32-14.933 32-32s-14.933-32-32-32h-192c-91.733 0-166.4-74.666-166.4-166.4v-381.866c0-91.734 74.667-166.4 166.4-166.4h134.4c17.067 0 32-14.934 32-32s-14.933-32-32-32zM669.867-91.733H428.8c-17.067 0-32 14.933-32 32s14.933 32 32 32h241.067c91.733 0 166.4 74.666 166.4 166.4V249.6c0 17.067 14.933 32 32 32s32-14.933 32-32v-110.933c2.133-128-102.4-230.4-230.4-230.4z"  horiz-adv-x="1024" />

    
    <glyph glyph-name="huabanfuben1" unicode="&#59022;" d="M489.783109 383.963875m-476.778099 0a476.778099 476.778099 0 1 1 953.556198 0 476.778099 476.778099 0 1 1-953.556198 0ZM115.166584 741.601637H1000.663233v-664.122487H115.166584zM421.723559 94.530163h493.829112v-34.029775H421.723559zM1017.714245 60.428138h-68.1318v34.102025h34.029775v34.029775h34.102025v-68.1318zM983.61222 656.418825h34.029775v-493.829112h-34.029775zM1017.714245 690.52085h-34.102025v34.029774h-34.029775v34.029775h68.1318v-68.059549zM200.349397 758.580399h715.203274v-34.029775H200.349397zM132.217597 690.52085h-34.029775v68.059549h68.05955v-34.029775H132.217597v-34.029774zM183.298384 60.428138H98.187822V656.418825h34.029775v-561.888662h51.080787v-34.102025zM717.804276 128.559938c-19.579764 0-35.763776 10.259508-50.069287 19.290764-11.415508 7.225005-22.108516 14.01651-31.862273 14.01651s-20.519015-6.719255-31.934524-13.87201c-14.450011-8.886757-30.417272-19.001764-49.924786-19.001764s-36.125026 10.331758-50.141537 19.507515c-11.343258 7.225005-22.108516 14.450011-31.790023 14.45001h-16.328512v33.740775h16.473012c19.579764 0 36.125026-10.331758 50.141537-19.507514 11.343258-7.225005 22.108516-14.450011 31.717773-14.450011s20.519015 6.719255 31.934523 13.87201c14.450011 8.886757 30.417272 19.001764 49.924787 19.001764s35.763776-10.259508 49.997036-19.290764c11.415508-7.225005 22.108516-14.01651 31.862274-14.01651s20.446765 6.791505 31.862273 14.01651c14.450011 9.031257 30.489522 19.290764 49.997037 19.290764 14.450011 0 34.318775-7.225005 57.149792-16.039512 16.978762-6.430255 48.046285-18.062513 57.800042-16.328512 0.939251 8.381006-9.970507 32.440274-15.895012 45.734284-9.103507 20.157765-16.906512 37.570028-16.906512 52.020038 0 18.857264 10.548508 34.029775 19.868764 47.468285 7.225005 10.259508 13.79976 19.941015 13.799761 28.10527s-6.574755 16.834262-13.51076 26.29902c-9.392507 12.860509-20.085515 27.38277-20.085515 46.456784s10.693008 33.668525 20.085515 46.456784c7.225005 9.464757 13.51076 18.351513 13.51076 26.299019s-6.719255 17.845763-13.799761 28.10527c-9.320257 13.43851-19.868765 28.900021-19.868764 47.468285 0 14.450011 7.803006 31.573273 16.834262 51.442038 6.141254 13.51076 17.484513 38.292528 15.895012 46.167784-9.609257 1.950751-40.60453-10.548508-57.800043-17.412263-22.903267-9.248007-42.699781-17.195513-57.800042-17.195513-19.868765 0-36.125026 10.982008-50.575037 20.735766-11.271008 7.658506-21.675016 14.883511-31.356523 14.88351s-20.085515-7.225005-31.356523-14.88351c-14.450011-9.681507-30.634022-20.735765-50.575037-20.735766s-36.125026 10.982008-50.575037 20.735766c-11.271008 7.658506-21.675016 14.883511-31.356523 14.88351s-20.085515-7.225005-31.428773-14.88351c-14.450011-9.681507-30.634022-20.735765-50.575037-20.735766s-36.125026 10.982008-50.575037 20.735766c-11.271008 7.658506-21.675016 14.883511-31.356523 14.88351s-20.085515-7.225005-31.428773-14.88351c-14.450011-9.681507-30.634022-20.663515-50.575037-20.663516-15.244761 0-33.668525 8.236506-54.98229 17.701263-14.450011 6.502505-44.795033 20.013265-52.164538 16.617513l-0.578001-0.578001c-2.312002-6.358005 10.476258-33.090524 16.617512-45.951034 9.320257-19.507514 17.412263-36.125026 17.412263-50.575037 0-18.929514-10.837508-34.174275-20.374515-47.612784-7.225005-10.187257-14.450011-19.796514-14.45001-27.888521 0-6.574755 4.768503-12.138009 12.571509-20.735765L187.850138 438.873915c-9.537007 10.476258-21.675016 23.553517-21.675016 43.350032 0 18.929514 10.837508 34.174275 20.374515 47.612785 7.225005 10.187257 14.450011 19.796514 14.45001 27.88852 0 6.647005-7.803006 22.975517-14.01651 36.125027-14.450011 30.850773-31.501023 65.819798-8.525506 86.122063 20.880265 20.085515 55.632541 4.551753 89.228815-10.404008 14.450011-6.574755 33.090524-14.450011 41.11028-14.45001 9.392507 0 20.085515 7.225005 31.428773 14.88351 14.450011 9.681507 30.634022 20.663515 50.575037 20.663516s36.125026-10.982008 50.575037-20.735766c11.271008-7.658506 21.675016-14.883511 31.356523-14.88351s20.085515 7.225005 31.428773 14.88351c14.450011 9.681507 30.634022 20.735765 50.575037 20.735766s36.125026-10.982008 50.575037-20.735766c11.271008-7.658506 21.675016-14.883511 31.356523-14.88351s20.085515 7.225005 31.356523 14.88351c14.450011 9.681507 30.634022 20.735765 50.575037 20.735766s36.125026-10.982008 50.575037-20.735766c11.271008-7.658506 21.675016-14.883511 31.356523-14.88351 8.164256 0 28.466521 8.164256 44.795033 14.45001 38.075778 15.895012 74.851055 30.706272 93.925069 9.753757s4.840754-52.598039-9.537007-84.099061c-6.141254-13.51076-13.79976-30.272772-13.79976-37.281028 0-8.164256 6.719255-17.845763 13.79976-28.10527 9.320257-13.43851 19.868765-28.900021 19.868764-47.468285s-10.693008-33.668525-20.085514-46.456784c-7.225005-9.464757-13.51076-18.351513-13.51076-26.299019s6.574755-16.834262 13.51076-26.29902c9.392507-12.860509 20.085515-27.38277 20.085514-46.456784s-10.331758-34.102025-19.868764-47.685035c-7.225005-10.259508-13.79976-19.941015-13.79976-28.10527s7.730756-24.276018 13.94426-38.003528c14.450011-31.934523 28.900021-65.025048 9.031257-84.171312-18.929514-19.363014-55.488041-5.635504-93.925069 8.959007-17.195513 6.502505-36.703027 13.87201-45.156283 13.87201-9.681507 0-20.446765-6.791505-31.862274-14.01651-14.377761-8.814506-30.634022-19.074014-50.141536-19.074014zM234.379172 230.721513v-255.403937l68.1318 51.080787 68.131799-51.080787V230.721513H234.379172zM370.642771-41.733437a17.051012 17.051012 0 0 0-10.187257 3.395753l-57.800042 43.350031-57.800043-43.350031a17.051012 17.051012 0 0 0-27.23827 13.65526V230.721513h33.813025v-221.374162l40.89353 30.634022a17.051012 17.051012 0 0 0 20.446765 0l40.89353-30.634022V230.721513h34.029775v-255.403937a16.978762 16.978762 0 0 0-17.051013-17.051013zM302.510972 332.883088m-119.212588 0a119.212587 119.212587 0 1 1 238.425175 0 119.212587 119.212587 0 1 1-238.425175 0ZM302.510972 196.691738a136.19135 136.19135 0 1 0 136.191349 136.19135 136.4081 136.4081 0 0 0-136.191349-136.19135z m0 238.425174A102.161575 102.161575 0 1 1 404.600296 332.883088 102.306075 102.306075 0 0 1 302.510972 435.044662zM489.783109 503.176462h272.454949v-34.029775H489.783109zM489.783109 435.044662h272.454949v-34.029775H489.783109zM489.783109 366.985113h187.344387v-34.029775H489.783109z"  horiz-adv-x="1024" />

    
    <glyph glyph-name="yiqijianding" unicode="&#58995;" d="M363.2-20.8L0 148.8V704c209.6-9.6 324.8-104 363.2-128v-596.8zM1024 206.4L384-20.8v592L1024 640zM832 281.6l-384-132.8V492.8l384 40zM1024 660.8l-640-64c-128 107.2-235.2 128-384 148.8l576 43.2c174.4-16 316.8-67.2 448-128zM659.2 324.8c-17.6 0-38.4 11.2-62.4 35.2-27.2 27.2-48 36.8-64 30.4-22.4-8-30.4-49.6-32-65.6h-11.2c0 3.2 4.8 62.4 38.4 75.2 20.8 8 46.4-3.2 75.2-33.6 27.2-27.2 48-36.8 64-30.4 27.2 9.6 32 64 32 65.6h11.2c0-3.2-4.8-62.4-38.4-75.2-3.2 0-8-1.6-12.8-1.6zM600 368l-11.2 1.6c0 3.2 4.8 62.4 40 75.2 20.8 8 46.4-3.2 76.8-33.6 27.2-27.2 49.6-36.8 65.6-30.4 28.8 11.2 33.6 65.6 33.6 65.6l11.2-1.6c0-3.2-4.8-62.4-40-75.2-20.8-8-46.4 3.2-76.8 33.6-27.2 27.2-49.6 36.8-65.6 30.4-28.8-9.6-33.6-65.6-33.6-65.6zM454.208 317.568l359.92 129.184 3.776-10.56-359.904-129.168z"  horiz-adv-x="1024" />

    
    <glyph glyph-name="daoru" unicode="&#58996;" d="M577.240693 105.097796L314.97388 441.890246c-20.486622 31.713037-5.644921 42.495469 32.347297 43.76399h112.200724C370.725399 771.071566 0.190278 895.38667 0.190278 895.38667s526.943817 34.25008 699.018754-409.098173l123.744269 0.634261c41.797782 1.268521 58.732544-10.148172 38.689905-46.935295l-219.644492-331.718363a37.104253 37.104253 0 0 0-64.758021-3.171304z m472.714525 489.015026a68.500159 68.500159 0 0 0 80.233982-80.551114v-480.769635a68.183029 68.183029 0 0 0-80.233982-79.916853H327.722521c-80.233983 0-80.233983 0-80.233983 79.916853V407.640166L167.254555 474.871804v-521.996584a73.574245 73.574245 0 0 1 80.233983-80.551113h865.892753a96.090501 96.090501 0 0 1 97.485875 100.213196V592.8443a74.525636 74.525636 0 0 1-80.677966 81.185374h-417.724118l85.371494-79.916852h252.118642z"  horiz-adv-x="1212" />

    
    <glyph glyph-name="ziyuan" unicode="&#59341;" d="M262.945641 479.657044l-0.692093-238.969586L54.230376 360.814908l0.692092 238.969586 208.023173-120.12745zM262.945641 479.657044l64.562325 37.570725-0.692093-239.068456-64.562325-37.471855 0.692093 238.969586zM54.922468 599.784494l64.562325 37.471854 208.023173-120.028579-64.562325-37.570725L54.922468 599.784494zM574.881529 617.383412l-1.581925-560.199285L365.276431 177.212706l1.680796 560.199286 207.924302-120.02858zM574.881529 617.383412l64.562325 37.471855-1.581925-560.199286-64.562325-37.471854 1.581925 560.199285zM366.957227 737.411992l64.562325 37.570725 207.924302-120.12745-64.562325-37.471855-207.924302 120.02858zM905.207299 738.400695l-2.471758-866.400695-208.023173 120.12745 2.471759 866.301825 208.023172-120.02858zM905.207299 738.400695l64.562325 37.471855-2.372887-866.400695-64.661196-37.471855 2.471758 866.400695zM697.184127 858.429275L761.746452 896 969.769624 775.87255l-64.562325-37.471855L697.184127 858.429275z"  horiz-adv-x="1024" />

    
    <glyph glyph-name="peixunkecheng" unicode="&#59046;" d="M1007.859895 134.24222v579.388388a27.589923 27.589923 0 0 1-27.589923 27.589923H43.316179a27.589923 27.589923 0 0 1-27.589923-27.589923v-579.388388zM1023.310252 118.791863H0.827698V714.320356a42.626431 42.626431 0 0 0 42.488481 42.626431h938.05739a42.764381 42.764381 0 0 0 42.626431-42.626431zM31.590462 149.692577h960.819076V714.320356a11.725717 11.725717 0 0 1-11.725717 11.725717H43.316179a11.863667 11.863667 0 0 1-11.725717-11.725717zM62.767075 694.179712h898.603799v-512.068975H62.767075zM15.450357 134.794019v-83.597468a36.694598 36.694598 0 0 1 32.41816-33.935605h935.022497c16.140105 0 25.658629 16.553954 25.658629 32.556109v84.976964zM982.891014 1.810589H47.868517A51.869056 51.869056 0 0 0 0 51.196551v99.047825h1024v-100.427321c0-23.589384-15.312407-48.006466-41.108986-48.006466z m-951.85235 117.533073v-68.147111a21.933989 21.933989 0 0 1 16.967802-18.485248h934.884548c6.069783 0 10.346221 8.966725 10.346222 17.105752v68.974808zM667.676142-112.549643c-8.828775 3.862589-19.450896 8.552876-25.658629 12.001617-11.035969 6.069783-13.794962 6.897481-17.243702 27.589923-4.552337 22.623737-0.827698 67.733261-2.483093 88.563653l-220.029638 1.103597c-1.793345-20.692442 1.931295-67.043513-2.483093-89.66725-4.138488-20.554493-7.03543-21.38219-17.93345-27.589923-6.207733-3.310791-16.691904-8.139027-25.520679-11.863667H667.676142zM662.158157-126.758453c-6.897481 3.034892-19.450896 8.552876-27.589923 12.691364h-0.965647c-15.588307 8.690826-19.450896 14.622659-24.003234 37.522296a323.905699 323.905699 0 0 0-2.621042 59.456284v17.243702l-190.094571 0.965648v-17.519602a344.87404 344.87404 0 0 0-2.345144-59.594234c-4.690287-23.313485-9.656473-29.245319-24.279132-37.246396l-1.379496-0.827698c-7.03543-3.862589-18.485249-8.966725-26.762226-12.553415l-12.277516 28.417621c10.89802 4.690287 19.450896 8.690826 24.141183 11.173919l1.379496 0.827698c6.345682 3.44874 6.345682 3.44874 8.828776 16.140105a342.252997 342.252997 0 0 1 2.069244 53.248552v34.625353l1.241547 13.794962 248.309308-1.379496 1.103597-13.794962c0.827698-8.828775 0-21.106291 0-34.211505a304.592752 304.592752 0 0 1 3.034892-51.869055 41.384885 41.384885 0 0 1 3.58669-13.794962 39.867439 39.867439 0 0 1 5.104136-3.172841c5.517985-2.896942 13.794962-7.17338 25.10683-11.863667zM328.595985-97.099286h366.945979v-30.900714h-366.945979zM830.318739 181.420989V712.527011L662.296107 880.549643H193.681261V181.420989h636.637478zM845.769096 181.420989h-30.900714V706.181328L655.950424 865.099286H209.131618V181.420989h-30.900714V896h490.548835l176.989357-177.127307V181.420989zM813.626836 712.527011H662.296107l151.330729-168.022633V712.527011zM662.296107 712.527011h168.022632L662.296107 880.549643V712.527011zM830.318739 697.076654H662.158157l-15.312407 15.450357V880.549643L673.194126 891.447663 841.492658 723.42503z m-152.572275 30.900714h115.325879l-115.325879 115.325879zM266.518658 787.985451h297.833221v-30.900714H266.518658zM262.794019 653.898424h477.443621v-30.900714H262.794019zM262.794019 586.85491h477.443621v-30.900714H262.794019zM262.794019 519.811397h477.443621v-30.900714H262.794019zM262.794019 452.767884h477.443621v-30.900714H262.794019zM262.794019 385.72437h474.408729v-30.900714H262.794019zM262.794019 318.680857h252.999595v-30.900714H262.794019z"  horiz-adv-x="1024" />

    
    <glyph glyph-name="huodongbaobei" unicode="&#58997;" d="M511.656 329c114.877 0 222.959-17.713 304.091-49.148 41.39-16.037 75.187-35.42 99.533-57.722 28.146-25.783 44.032-55.864 44.032-88.63s-15.886-62.847-44.032-88.63c-24.346-22.302-58.142-41.685-99.533-57.722C734.615-44.287 626.533-62 511.657-62c-114.878 0-222.96 17.713-304.092 49.148-41.39 16.037-75.187 35.42-99.532 57.722C79.887 70.653 64 100.734 64 133.5c0 30.25 13.596 58.329 37.914 82.764 21.087 21.188 50.39 39.834 86.5 55.69 18.205 7.992 39.443-0.286 47.436-18.49 7.993-18.205-0.285-39.443-18.49-47.436l-2.046-0.906c-27.466-12.262-48.646-25.862-62.366-39.648C141.155 153.624 136 142.979 136 133.5c0-10.448 6.301-22.379 20.667-35.539 17.017-15.588 43.254-30.636 76.91-43.676C305.85 26.282 405.205 10 511.658 10c106.451 0 205.805 16.282 278.078 44.285 33.656 13.04 59.893 28.088 76.91 43.676 14.366 13.16 20.667 25.091 20.667 35.539s-6.3 22.379-20.667 35.539c-17.017 15.588-43.254 30.636-76.91 43.676C717.462 240.718 618.108 257 511.656 257c-19.882 0-36 16.118-36 36s16.118 36 36 36zM629.56 815.899c23.34 21.4 59.593 19.797 80.975-3.58a57.43 57.43 0 0 0 12.027-20.373l86.392-255.625c6.711-19.858 2.077-41.795-12.088-57.223-31.652-34.475-67.673-58.27-107.79-70.817-43.395-13.572-90.716-13.722-141.456-0.885l-1.431 0.365a44.858 44.858 0 0 1-2.267 0.522c-45.074 9.155-82.436 8.731-112.227-0.586-20.815-6.51-40.004-18.008-57.808-34.816a57.252 57.252 0 0 0-14.436-9.958l70.725-220.356c0.028-0.09 0.069-0.225 0.12-0.404l-65.563-21.208-0.179 0.541-161.897 504.427-8.786 25.998a57.496 57.496 0 0 0-2.01 7.637l-0.692 2.158c-3.095 9.646-1.72 19.655 2.973 27.786a57.34 57.34 0 0 0 9.527 16.99c27.668 34.103 62.812 57.95 104.717 71.056 45.325 14.176 94.936 14.693 148.374 1.97l1.828-0.44 1.579-0.416c39.428-10.26 74.43-10.279 105.601-0.53 22.813 7.135 44.006 19.625 63.791 37.767zM440.8 712.539c-41.84 9.961-78.958 9.575-111.886-0.724-26.864-8.401-49.191-22.827-67.55-43.662l0.09 0.104 9.55-29.753 68.907-203.89 1.109 0.9c21.156 17.074 44.225 29.655 69.079 37.578l1.068 0.337c41.877 13.098 90.726 13.651 146.403 2.344 1.924-0.39 3.837-0.831 5.664-1.302l1.284-0.328c38.869-9.833 73.352-9.724 104.03-0.13 26.066 8.153 50.125 23.378 72.397 46.128l0.651 0.67-78.738 232.977-0.934-0.75c-22.952-18.303-47.83-31.786-74.515-40.287l-1.113-0.351c-44.476-13.91-92.978-13.747-144.89 0.002l0.424-0.111z"  horiz-adv-x="1024" />

    
    <glyph glyph-name="qun" unicode="&#58998;" d="M618.32285015 348.70909713000003c-25.45530172 22.79699513-55.31426363 58.45589882-63.79936385 125.10153064a307.02101395 307.02101395 0 0 0 0.61758631 62.56419126c-0.56388312 0 0.72499266 0.0805545 0.13425819 0.08055504-79.21217315 3.75922202-129.82740939-55.93184993-129.82740991-124.96727298 0-51.4744871 29.48303964-95.61849154 71.55947195-114.70996783C425.17940501 276.85425794 374.29565288 209.67159432999995 371.47623676 131.23811647000002h106.43967981v0.0537032c11.81469682 108.6146583 73.30482501 193.33140602 140.24582405 217.41727745h0.16110953z m520.43740535-217.47098066c-2.84626797 78.00385188-54.07909052 144.97170332-126.28300059 164.76132095 42.31809687 19.06462496 72.0159487 63.02066802 72.01594871 114.30719372 0 68.79375848-50.93745531 128.13576002-130.68666026 124.37653801-0.56388312 0 0.67128949-0.0805545 0.0805545-0.08055451 2.38979121-20.67571983 2.60460341-41.56625236 0.67129-62.37623039-8.53880392-66.24285827-38.66628122-101.76750425-64.20213795-124.48394436 67.39747635-23.89791006 129.26352626-108.31929054 141.21248129-216.42376838v-0.08055503h107.1915243z m-328.52913279 212.93306279c67.39747635 30.15432912 104.90913946 105.98320304 89.73799419 180.97967793C884.77112032 600.14733157 821.07916281 653.52828073 747.82804099 652.50792085c-73.27797316-0.99350856-135.60050036-56.03925628-148.94573752-131.38480158-13.31838583-75.45295165 26.04603669-150.10035563 94.16850567-178.50933169-90.27502598-27.81824109-153.4836554-112.83035656-157.1891737-211.32196792h437.57341602c-3.70551884 100.82769887-70.00208028 187.15554199-163.20392875 212.85250827v0.02685133z"  horiz-adv-x="1484" />

    
    <glyph glyph-name="jianshao1" unicode="&#59284;" d="M862.59712-51.2H166.52288A84.70016 84.70016 0 0 0 81.92 33.40288V729.47712A84.70016 84.70016 0 0 0 166.52288 814.08h696.07424A84.70016 84.70016 0 0 0 947.2 729.47712v-696.07424A84.70016 84.70016 0 0 0 862.59712-51.2zM166.52288 755.52768a26.07616 26.07616 0 0 1-26.05056-26.05056v-696.07424a26.07616 26.07616 0 0 1 26.05056-26.05056h696.07424a26.07616 26.07616 0 0 1 26.05056 26.05056V729.47712a26.07616 26.07616 0 0 1-26.05056 26.05056H166.52288zM729.0112 352.16384H300.09344a29.27616 29.27616 0 1 0 0 58.55232h428.91776a29.27616 29.27616 0 1 0 0-58.55232z"  horiz-adv-x="1024" />

    
    <glyph glyph-name="jinqi" unicode="&#58999;" d="M736 48l-224 134.4-224-134.4V694.4h448v-646.4z"  horiz-adv-x="1024" />

    
    <glyph glyph-name="fengexian" unicode="&#59000;" d="M1027.670251 235.354839H146.810036a146.810036 146.810036 0 0 1-146.810036-146.810036v-216.544803h110.107527V88.544803a36.702509 36.702509 0 0 0 36.702509 36.702509h880.860215a36.702509 36.702509 0 0 0 36.702509-36.702509v-216.544803h110.107527V88.544803a146.810036 146.810036 0 0 1-146.810036 146.810036zM1174.480287 679.455197V896h-110.107527v-216.544803a36.702509 36.702509 0 0 0-36.702509-36.702509H146.810036a36.702509 36.702509 0 0 0-36.702509 36.702509V896H0v-216.544803a146.810036 146.810036 0 0 1 146.810036-146.810036h880.860215a146.810036 146.810036 0 0 1 146.810036 146.810036zM178.741219 439.420789m55.053763 0l706.890323 0q55.053763 0 55.053763-55.053764l0 0q0-55.053763-55.053763-55.053763l-706.890323 0q-55.053763 0-55.053763 55.053763l0 0q0 55.053763 55.053763 55.053764Z"  horiz-adv-x="1175" />

    
    <glyph glyph-name="guanbi1" unicode="&#59001;" d="M574.55 373.65L904.4 703.5c16.65 16.65 16.65 44.1 0 60.75l-1.8 1.8c-16.65 16.65-44.1 16.65-60.75 0L512 435.75l-329.85 330.3c-16.65 16.65-44.1 16.65-60.75 0l-1.8-1.8c-17.1-16.65-17.1-44.1 0-60.75l329.85-329.85L119.6 43.8c-16.65-16.65-16.65-44.1 0-60.75l1.8-1.8c16.65-16.65 44.1-16.65 60.75 0L512 311.1l329.85-329.85c16.65-16.65 44.1-16.65 60.75 0l1.8 1.8c16.65 16.65 16.65 44.1 0 60.75L574.55 373.65z"  horiz-adv-x="1024" />

    
    <glyph glyph-name="jiaoshi3" unicode="&#59013;" d="M775.58 358L770 307.7l-3.78-33.88H291.68L288 307.7 282.3 358a261.02 261.02 0 0 0 19.5 131.5 260.82 260.82 0 0 1 20.76 115.74l-2.94 58.64a209.6 209.6 0 0 0 418.66 20.92c0.34-6.96 0.34-14 0-20.9l-2.94-58.64a260.82 260.82 0 0 1 20.76-115.74 260.56 260.56 0 0 0 19.48-131.52zM775.58 358L770 307.7h-190.2v186.44L613.68 562V697.52a186.6 186.6 0 0 1-137.14 179.84 209.82 209.82 0 0 0 261.74-213.46l-2.94-58.64a260.82 260.82 0 0 1 20.76-115.74 260.56 260.56 0 0 0 19.48-131.52zM620.46 341.6a23.72 23.72 0 0 0-23.72 23.7v112h-135.58v-111.86a23.74 23.74 0 0 0-23.7-23.74h-27.14V240h237.26v101.6zM539.16 392.44a93.08 93.08 0 0 1 57.58 20.78v64h-135.58v-64a92.96 92.96 0 0 1 57.56-20.8zM681.48 663.62v-84.74a152.54 152.54 0 1 0-305.06 0v84.74a230 230 0 0 1 78.16 88.56l6.58 13.14 9.62-8a422.3 422.3 0 0 1 142.9-78.18 425.62 425.62 0 0 1 67.8-15.52zM681.48 663.62v-84.74A152.62 152.62 0 0 0 558 429.12 185.74 185.74 0 0 1 613.68 562v117.1a425.62 425.62 0 0 1 67.8-15.48zM444.2 273.82h169.48v-118.64H444.2zM874.2-98.36a51.48 51.48 0 0 0-57.14 34.14l-112 210a132 132 0 0 0-23.64-126.2V-116h-305v135.58a132.2 132.2 0 0 0-23.4 127.78l-113.76-211.58A51.42 51.42 0 0 0 141.62-32L266 277.82a101.62 101.62 0 0 0 94.36 63.78h66.84l101.68-186.42 101.7 186.42h66.58a101.78 101.78 0 0 0 94.5-64.12L914.74-32a51.48 51.48 0 0 0-33.34-64.68 55.52 55.52 0 0 0-7.2-1.68zM126.92-37.64l12.22 158.92h101.68V-42a57.04 57.04 0 0 0-114 0q-0.08 2.16 0.1 4.36zM179.02 368.5a32.94 32.94 0 0 1-21.5-46.72l15.52-31.02H112.3a101.72 101.72 0 0 0-45.48 10.74L50 310a20.34 20.34 0 0 1-29.44-18.2V244a34 34 0 0 1 18.74-30.32l27.58-13.8a101.72 101.72 0 0 1 45.48-10.74h128.52v101.62l-23.2 58a32.94 32.94 0 0 1-38.6 19.72zM139.14 189.06h101.68v-67.78H139.14zM874.2-98.36a51.48 51.48 0 0 0-57.14 34.14l-112 210a132 132 0 0 0-23.64-126.2V-116H382c139.9 91.36 258 207.28 356.98 448.62a101.6 101.6 0 0 0 52.76-55.14L914.74-32a51.48 51.48 0 0 0-33.34-64.68 55.52 55.52 0 0 0-7.2-1.68zM766.22-48.2l-169.48 33.88V222.96l169.48-34zM834-48.2l169.48 33.88V222.96l-169.48-34zM766.22 189.06H834V-48.2h-67.8zM800.12 189.06A60 60 0 0 1 750 248.28l-153.22 25.54v-50.86l169.48-34h33.9a60 60 0 0 0 50.16 59.22l153.22 25.54v-50.86l-169.48-34zM972.38-46.6L904.6-58a16.96 16.96 0 0 0-19.5 14 16.32 16.32 0 0 0-0.24 2.78v63a22 22 0 0 0 18.44 21.76l57.56 9.6a22 22 0 0 0 25.7-21.76v-61.3a16.98 16.98 0 0 0-14.18-16.68zM528.94 509.48c-17.7 0-34.18 6-45.22 16.3a17.02 17.02 0 1 0 23.3 24.8c3.64-3.42 11.32-7.08 22-7.08s18.3 3.66 22 7.08a17.02 17.02 0 1 0 23.3-24.8c-11.04-10.36-27.52-16.3-45.24-16.3z"  horiz-adv-x="1024" />

    
    <glyph glyph-name="tanchuangguanbi" unicode="&#59002;" d="M512-128c281.6 0 512 230.4 512 512S793.6 896 512 896 0 665.6 0 384s230.4-512 512-512z m0 981.344c258.144 0 469.344-211.2 469.344-469.344S770.144-85.344 512-85.344 42.656 125.856 42.656 384 253.856 853.344 512 853.344zM406.4 244.16l269.856 269.824c8.544 8.544 8.544 23.552 0 34.24-8.576 8.576-23.584 8.576-34.272 0L372.128 278.4c-8.544-8.576-8.544-23.552 0-34.24 10.72-8.576 25.696-8.576 34.272 0zM372.16 513.984l269.824-269.856c8.544-8.544 23.552-8.544 34.24 0 8.576 8.576 8.576 23.584 0 34.272L406.4 548.256c-8.576 8.544-23.552 8.544-34.24 0-8.576-10.72-8.576-25.728 0-34.272z"  horiz-adv-x="1024" />

    
    <glyph glyph-name="zhankai1" unicode="&#59114;" d="M789.333333 533.333333H234.666667c-12.8 0-21.333333 8.533333-21.333334 21.333334s8.533333 21.333333 21.333334 21.333333h554.666666c12.8 0 21.333333-8.533333 21.333334-21.333333s-8.533333-21.333333-21.333334-21.333334zM789.333333 364.8H234.666667c-12.8 0-21.333333 8.533333-21.333334 21.333333s8.533333 21.333333 21.333334 21.333334h554.666666c12.8 0 21.333333-8.533333 21.333334-21.333334s-8.533333-21.333333-21.333334-21.333333zM789.333333 192H234.666667c-12.8 0-21.333333 8.533333-21.333334 21.333333s8.533333 21.333333 21.333334 21.333334h554.666666c12.8 0 21.333333-8.533333 21.333334-21.333334s-8.533333-21.333333-21.333334-21.333333z"  horiz-adv-x="1024" />

    
    <glyph glyph-name="xinghao" unicode="&#59019;" d="M927 216.5L635.7 384.3 927 552.1c29.1 14.6 43.7 58.3 22.1 87.4-14.6 29.1-58.3 43.7-87.4 22.1L570.5 493.8V828.2c7 36.7-22.1 65.8-58.3 65.8-36.1 0-65.8-29.1-65.8-65.8v-335L155.1 661c-22.1 21.6-65.8 7-80.4-22.1-14.6-29.1-7.6-72.8 22.1-87.4l291.3-167.8L96.9 215.9c-29.1-14.6-43.7-58.3-21.6-87.4 14.6-22.1 36.7-29.1 58.3-29.1 7 0 21.6 0 29.1 7.6L454 274.8v-335c-7.6-36.7 22.1-65.8 58.3-65.8 36.1 0 65.2 29.1 65.2 65.8v335L868.7 107c7.6-7.6 22.1-7.6 29.1-7.6 22.1 0 43.7 14.6 58.3 29.1 7 29.8 0 73.5-29.1 88z"  horiz-adv-x="1024" />

    
    <glyph glyph-name="fengexian1" unicode="&#59004;" d="M545.28 754.4832v-740.9664h-66.56V754.4832h66.56zM407.04 561.664v-355.328H137.984V561.664H407.04z m478.976 0v-355.328H616.96V561.664h269.056zM340.4288 495.1552H204.544v-222.2592h135.8848V495.1552z m478.976 0H683.52v-222.2592h135.8848V495.1552z"  horiz-adv-x="1024" />

    
    <glyph glyph-name="daochu" unicode="&#59006;" d="M946.4 591c-34.1 0-61.7-28-61.7-62.6v-375.8c0-34.5-27.6-62.6-61.7-62.6H206.2c-34 0-61.7 28.1-61.7 62.6V528.4c0 34.6-27.6 62.6-61.7 62.6s-61.7-28-61.7-62.6v-375.8c0-103.6 83-187.9 185.1-187.9h616.9c102 0 185.1 84.3 185.1 187.9V528.4c-0.1 34.6-27.7 62.6-61.8 62.6zM298.7 591h61.7c17 0 30.8-14.1 30.8-31.3v-125.3c0-17.3 13.9-31.3 30.8-31.3h185c17 0 30.9 14.1 30.9 31.3V559.7c0 17.2 13.9 31.3 30.8 31.3h61.7c17 0 21 10 9 22.1l-203 206.3c-12 12.2-31.6 12.2-43.6 0L289.7 613.1c-12-12.1-7.9-22.1 9-22.1z m123.4-250.6c-17.1 0-30.8-13.9-30.8-31.3 0-17.2 13.8-31.3 30.8-31.3h185.1c17.1 0 30.8 14.1 30.8 31.3 0 17.4-13.8 31.3-30.8 31.3H422.1z"  horiz-adv-x="1024" />

    
    <glyph glyph-name="xiangyou" unicode="&#58985;" d="M267.093683 820.010753c14.654448 14.628864 38.379917 14.628864 53.030271 0l446.395763-407.725213c7.836855-7.811271 11.139222-18.146136 10.628568-28.335685 0.510654-10.189549-2.791713-20.548974-10.628568-28.335685l-446.395763-407.725213c-14.650354-14.60328-38.375823-14.60328-53.030271 0-14.650354 14.604303-14.650354 38.307258 0 52.910538l419.494822 383.152406L267.093683 767.127845C252.440259 781.731125 252.440259 805.408497 267.093683 820.010753z"  horiz-adv-x="1025" />

    
    <glyph glyph-name="guanli" unicode="&#58986;" d="M860.6 577l-109.2 49.8-341.9-155.4 103.1-47.8zM81.1 559.6l419-194.1c3.9-1.8 8-2.7 12.2-2.7 4 0 8 0.8 11.7 2.5L943 550c10.4 4.6 17.2 14.9 17.3 26.3 0.1 11.4-6.6 21.8-16.9 26.6L515.1 798.5c-7.6 3.5-16.4 3.5-24 0l-66.4-30.2c-14.6-6.6-21-23.8-14.4-38.4 6.6-14.6 23.8-21 38.4-14.4l54.4 24.7 248.4-113.5L860.6 577l-348-153.4-103.1 47.8-246.7 114.3 104.8 47.7c14.6 6.6 21 23.8 14.4 38.4-6.6 14.6-23.8 21-38.4 14.4L81.3 612.3c-10.3-4.7-17-15-17-26.3s6.6-21.6 16.8-26.4zM343.8 670.8c4 0 8.1 0.8 12 2.6l9.9 4.5c14.6 6.6 21 23.8 14.4 38.4-6.6 14.6-23.8 21-38.4 14.4l-9.9-4.5c-14.6-6.6-21-23.8-14.4-38.4 4.8-10.7 15.3-17 26.4-17zM919.3 382.4L512.6 196.2 105.9 391.6c-14.4 6.9-31.7 0.9-38.7-13.6-6.9-14.4-0.9-31.7 13.6-38.7l419-201.3c4-1.9 8.3-2.9 12.6-2.9 4.1 0 8.2 0.9 12.1 2.6l419 191.9c14.6 6.7 21 23.9 14.3 38.4-6.8 14.7-24 21.1-38.5 14.4zM919.3 210.6L512.6 24.3 105.9 219.8c-14.4 6.9-31.7 0.9-38.7-13.6-6.9-14.4-0.9-31.7 13.6-38.7l419-201.3c4-1.9 8.3-2.9 12.6-2.9 4.1 0 8.2 0.9 12.1 2.6l419 191.9c14.6 6.7 21 23.9 14.3 38.4-6.8 14.6-24 21-38.5 14.4z"  horiz-adv-x="1024" />

    
    <glyph glyph-name="xiangyou1" unicode="&#59265;" d="M1206.423704 402.583704L646.447407 815.502222c-4.835556 3.508148-10.524444 5.30963-16.213333 5.30963-4.171852 0-8.438519-0.948148-12.325926-2.939259-9.197037-4.645926-14.980741-14.032593-14.980741-24.367408V-25.6c0-10.24 5.783704-19.626667 14.885926-24.367407 3.887407-1.991111 8.154074-2.939259 12.420741-2.93926 5.688889 0 11.282963 1.801481 16.023704 5.214815l559.976296 406.186667c7.016296 5.12 11.282963 13.274074 11.282963 21.997037 0.094815 8.722963-4.077037 16.877037-11.093333 22.091852z"  horiz-adv-x="1820" />

    
    <glyph glyph-name="icon-test2" unicode="&#58980;" d="M832.2 704v-640.2H192V704h640.2m64 64H128v-768.2h768.2V768z"  horiz-adv-x="1024" />

    
    <glyph glyph-name="beizhuSVG" unicode="&#58984;" d="M768-25.600000000000023c-51.2 0-102.4 35.84-153.6 71.68-40.96 30.72-87.04 66.56-128 66.56-30.72 0-71.68-30.72-107.52-66.56-40.96-35.84-81.92-71.68-133.12-71.68S153.6 20.480000000000018 153.6 71.67999999999995V696.3199999999999C153.6 747.52 194.56 793.6 245.76 793.6H768c25.6 0 46.08-10.24 66.56-25.6 20.48-20.48 30.72-46.08 25.6-71.68v-624.64c0-51.2-40.96-97.28-92.16-97.28z m-281.6 179.2c51.2 0 102.4-35.84 153.6-71.68 46.08-30.72 87.04-66.56 128-66.56 30.72 0 56.32 25.6 56.32 56.32V696.3199999999999c0 15.36-5.12 30.72-15.36 40.96-10.24 10.24-25.6 15.36-35.84 15.36H245.76c-30.72 0-56.32-25.6-51.2-56.32v-624.64c0-15.36 5.12-30.72 15.36-40.96 10.24-10.24 25.6-15.36 40.96-20.48 30.72 0 71.68 30.72 107.52 66.56 35.84 35.84 81.92 76.8 128 76.8zM768-40.960000000000036c-61.44 0-117.76 46.08-163.84 76.8-40.96 30.72-81.92 61.44-117.76 61.44-25.6 0-61.44-30.72-97.28-56.32-46.08-40.96-92.16-81.92-143.36-81.92-61.44 0-107.52 51.2-107.52 112.64V696.3199999999999c0 61.44 46.08 112.64 107.52 112.64H768c30.72 0 56.32-10.24 76.8-30.72 20.48-20.48 30.72-51.2 30.72-81.92v-624.64c0-61.44-46.08-112.64-107.52-112.64zM245.76 778.24c-40.96 0-76.8-35.84-76.8-81.92v-624.64c0-46.08 35.84-81.92 76.8-81.92s81.92 35.84 122.88 71.68C409.6 92.15999999999997 450.56 128 486.4 128c46.08 0 97.28-35.84 138.24-66.56 51.2-35.84 97.28-71.68 143.36-71.68 46.08 0 76.8 35.84 76.8 81.92V696.3199999999999c0 20.48-10.24 40.96-25.6 61.44-15.36 15.36-35.84 20.48-56.32 25.6H245.76z m0-783.36c-20.48 0-35.84 10.24-51.2 25.6s-20.48 30.72-20.48 51.2V696.3199999999999c0 40.96 30.72 71.68 66.56 71.68h522.24c20.48 0 35.84-5.12 51.2-20.48 15.36-15.36 20.48-35.84 20.48-56.32v-624.64c0-40.96-30.72-71.68-71.68-71.68-46.08 0-87.04 30.72-133.12 61.44l-10.24 5.12c-51.2 35.84-97.28 71.68-143.36 71.68-40.96 0-87.04-40.96-122.88-71.68-30.72-30.72-66.56-66.56-107.52-66.56zM768 737.28H245.76c-20.48 0-40.96-20.48-35.84-40.96v-624.64c0-10.24 5.12-20.48 10.24-30.72 5.12-10.24 15.36-15.36 25.6-15.36 25.6 0 61.44 30.72 92.16 56.32 40.96 35.84 92.16 81.92 143.36 81.92 61.44 0 117.76-46.08 158.72-76.8l10.24-5.12c35.84-30.72 76.8-56.32 112.64-56.32 20.48 0 40.96 20.48 40.96 40.96V696.3199999999999c0 10.24-5.12 25.6-15.36 30.72 0 10.24-10.24 10.24-20.48 10.24zM281.6 568.3199999999999c0 10.24 5.12 20.48 10.24 30.72 10.24 10.24 20.48 10.24 30.72 10.24h363.52c25.6 0 40.96-20.48 40.96-40.96s-20.48-40.96-40.96-40.96h-358.4c-10.24-5.12-20.48 0-30.72 10.24-10.24 5.12-15.36 15.36-15.36 30.72z m0-168.96c0 20.48 20.48 40.96 40.96 40.96h250.88c25.6 0 40.96-20.48 40.96-40.96 0-25.6-20.48-40.96-40.96-40.96H327.68c-10.24 0-20.48 5.12-30.72 10.24s-15.36 20.48-15.36 30.72z"  horiz-adv-x="1024" />

    
    <glyph glyph-name="dayuhao" unicode="&#58992;" d="M703.591061 384.426719 383.764895 64.643532 383.764895 256.259664 511.93195 384.597611 383.764895 512.21208 383.764895 704.29484Z"  horiz-adv-x="1024" />

    
    <glyph glyph-name="xiala" unicode="&#59123;" d="M876.8 518.4l-96 89.6L512 339.20000000000005 243.2 608 147.2 518.4 512 160z"  horiz-adv-x="1024" />

    
    </font>
</defs>
</svg>
